<?xml version="1.0" encoding="UTF-8" standalone="no"?>
<!-- Generator: Adobe Illustrator 16.0.4, SVG Export Plug-In . SVG Version: 6.00 Build 0)  -->

<svg
   xmlns:dc="http://purl.org/dc/elements/1.1/"
   xmlns:cc="http://creativecommons.org/ns#"
   xmlns:rdf="http://www.w3.org/1999/02/22-rdf-syntax-ns#"
   xmlns:svg="http://www.w3.org/2000/svg"
   xmlns="http://www.w3.org/2000/svg"
   xmlns:sodipodi="http://sodipodi.sourceforge.net/DTD/sodipodi-0.dtd"
   xmlns:inkscape="http://www.inkscape.org/namespaces/inkscape"
   version="1.1"
   x="0px"
   y="0px"
   width="120pt"
   height="120pt"
   viewBox="0 0 150 150"
   enable-background="new 0 0 125 125"
   xml:space="preserve"
   id="svg2"
   inkscape:version="0.91 r13725"
   sodipodi:docname="alexskc-scaleable.svg"
   inkscape:export-filename="/home/alex/Pictures/alexskc-new.png"
   inkscape:export-xdpi="720"
   inkscape:export-ydpi="720"><metadata
     id="metadata23"><rdf:RDF><cc:Work
         rdf:about=""><dc:format>image/svg+xml</dc:format><dc:type
           rdf:resource="http://purl.org/dc/dcmitype/StillImage" /><dc:title></dc:title></cc:Work></rdf:RDF></metadata><defs
     id="defs21" /><sodipodi:namedview
     pagecolor="#ffffff"
     bordercolor="#666666"
     borderopacity="1"
     objecttolerance="10"
     gridtolerance="10"
     guidetolerance="10"
     inkscape:pageopacity="0"
     inkscape:pageshadow="2"
     inkscape:window-width="3200"
     inkscape:window-height="1671"
     id="namedview19"
     showgrid="false"
     units="pt"
     inkscape:zoom="5.3400704"
     inkscape:cx="20.71993"
     inkscape:cy="85.557575"
     inkscape:window-x="0"
     inkscape:window-y="55"
     inkscape:window-maximized="1"
     inkscape:current-layer="svg2" /><g
     id="middleofthemap"
     transform="translate(0,25)" /><g
     id="Layer_4"
     transform="translate(0,25)" /><g
     id="Layer_5"
     transform="translate(0,25)" /><g
     id="Layer_6"
     transform="translate(0,25)" /><g
     id="Layer_7"
     transform="translate(12.5,12.5)"><g
       id="g9"><path
         d="m 125,66 -11.251,0 c -1.476,3.642 -5.041,6.213 -9.212,6.213 -4.171,0 -7.736,-2.571 -9.212,-6.213 l -4.711,0 c -1.424,3.748 -5.038,6.418 -9.287,6.418 -4.248,0 -7.862,-2.67 -9.286,-6.418 L 50.85,66 c -1.424,3.748 -5.039,6.418 -9.287,6.418 -4.248,0 -7.863,-2.67 -9.287,-6.418 l -8.549,0 c -1.312,3.957 -5.035,6.815 -9.433,6.815 C 9.896,72.815 6.173,69.957 4.861,66 L 0,66 0,94 7.855,94 c 1.1,-4.293 4.983,-7.471 9.619,-7.471 4.637,0 8.52,3.178 9.619,7.471 l 0.99,0 c 1.026,-4.396 4.963,-7.676 9.672,-7.676 4.709,0 8.645,3.28 9.672,7.676 l 6.031,0 c 0.88,-4.591 4.911,-8.062 9.759,-8.062 4.848,0 8.879,3.472 9.759,8.062 l 27.611,0 c 1.231,-4.092 5.024,-7.074 9.518,-7.074 4.494,0 8.286,2.982 9.518,7.074 l 5.377,0 0,-28 z"
         id="path11"
         style="fill:#85f1a2;fill-opacity:1"
         inkscape:connector-curvature="0" /><path
         d="m 13.681,26 c 0.875,-4.596 4.908,-8.072 9.759,-8.072 4.852,0 8.885,3.477 9.76,8.072 l 15.857,0 c 1.166,-4.194 5.004,-7.276 9.569,-7.276 4.567,0 8.403,3.082 9.569,7.276 l 2.39,0 c 1.028,-4.396 4.963,-7.674 9.672,-7.674 4.71,0 8.645,3.277 9.672,7.674 l 2.683,0 c 0.955,-4.494 4.942,-7.867 9.721,-7.867 4.779,0 8.767,3.373 9.721,7.867 L 125,26 125,15.004 C 125,6.718 118.282,0 109.995,0 L 15.005,0 C 6.718,0 0,6.718 0,15.004 L 0,26 13.681,26 Z"
         id="path13"
         style="fill:#f88e8f;fill-opacity:1"
         inkscape:connector-curvature="0" /><path
         d="m 119.811,99 c -0.977,4.465 -4.949,7.809 -9.706,7.809 -4.757,0 -8.729,-3.344 -9.706,-7.809 L 72.65,99 c -1.31,3.96 -5.035,6.82 -9.434,6.82 -4.399,0 -8.124,-2.86 -9.434,-6.82 l -6.477,0 c -1.189,4.159 -5.01,7.207 -9.551,7.207 -4.541,0 -8.362,-3.048 -9.552,-7.207 l -1.126,0 c -1.12,4.263 -4.988,7.411 -9.604,7.411 -4.614,0 -8.482,-3.148 -9.604,-7.411 L 0,99 0,109.996 C 0,118.282 6.718,125 15.005,125 l 94.99,0 C 118.282,125 125,118.282 125,109.996 L 125,99 l -5.189,0 z"
         id="path15"
         style="fill:#7fd3f8;fill-opacity:1"
         inkscape:connector-curvature="0" /><path
         d="m 111.834,31 c -1.249,4.062 -5.029,7.016 -9.502,7.016 -4.472,0 -8.252,-2.953 -9.501,-7.016 l -3.022,0 c -1.188,4.16 -5.01,7.208 -9.552,7.208 -4.541,0 -8.363,-3.048 -9.552,-7.208 l -2.425,0 c -1.053,4.361 -4.97,7.605 -9.654,7.605 -4.684,0 -8.602,-3.244 -9.654,-7.605 L 32.87,31 c -1.312,3.955 -5.034,6.811 -9.431,6.811 -4.396,0 -8.117,-2.855 -9.43,-6.811 L 0,31 0,60 4.778,60 c 1.233,-4.088 5.025,-7.066 9.516,-7.066 4.491,0 8.282,2.978 9.516,7.066 l 8.135,0 c 1.103,-4.29 4.984,-7.465 9.618,-7.465 4.634,0 8.515,3.175 9.618,7.465 l 20.529,0 c 1.103,-4.29 4.983,-7.465 9.617,-7.465 4.635,0 8.516,3.175 9.618,7.465 l 3.921,0 c 1.029,-4.395 4.964,-7.67 9.671,-7.67 4.707,0 8.642,3.275 9.671,7.67 l 10.792,0 0,-29 -13.166,0 z"
         id="path17"
         style="fill:#ffdd6c;fill-opacity:1"
         inkscape:connector-curvature="0" /></g></g></svg>