<?xml version="1.0" encoding="UTF-8" standalone="no"?>
<!-- Generator: Adobe Illustrator 16.0.4, SVG Export Plug-In . SVG Version: 6.00 Build 0)  -->

<svg
   xmlns:dc="http://purl.org/dc/elements/1.1/"
   xmlns:cc="http://creativecommons.org/ns#"
   xmlns:rdf="http://www.w3.org/1999/02/22-rdf-syntax-ns#"
   xmlns:svg="http://www.w3.org/2000/svg"
   xmlns="http://www.w3.org/2000/svg"
   xmlns:sodipodi="http://sodipodi.sourceforge.net/DTD/sodipodi-0.dtd"
   xmlns:inkscape="http://www.inkscape.org/namespaces/inkscape"
   version="1.1"
   id="Layer_1"
   x="0px"
   y="0px"
   width="32.473228"
   height="23.642"
   viewBox="0 0 32.473228 23.641999"
   enable-background="new 0 0 312.333 96.396"
   xml:space="preserve"
   inkscape:version="0.91 r13725"
   sodipodi:docname="favicon-scalable.svg"><metadata
     id="metadata4870"><rdf:RDF><cc:Work
         rdf:about=""><dc:format>image/svg+xml</dc:format><dc:type
           rdf:resource="http://purl.org/dc/dcmitype/StillImage" /><dc:title></dc:title></cc:Work></rdf:RDF></metadata><defs
     id="defs4868" /><sodipodi:namedview
     pagecolor="#ffffff"
     bordercolor="#666666"
     borderopacity="1"
     objecttolerance="10"
     gridtolerance="10"
     guidetolerance="10"
     inkscape:pageopacity="0"
     inkscape:pageshadow="2"
     inkscape:window-width="3172"
     inkscape:window-height="1740"
     id="namedview4866"
     showgrid="false"
     fit-margin-top="0"
     fit-margin-left="0"
     fit-margin-right="0"
     fit-margin-bottom="0"
     inkscape:zoom="5.7957158"
     inkscape:cx="45.698624"
     inkscape:cy="-4.6815772"
     inkscape:window-x="14"
     inkscape:window-y="46"
     inkscape:window-maximized="0"
     inkscape:current-layer="Layer_1" /><g
     id="g4844"
     transform="translate(-119.36,-0.09)"><path
       d="m 125.574,23.732 c -1.718,0 -3.183,-0.593 -4.395,-1.781 -1.212,-1.162 -1.819,-2.627 -1.819,-4.396 0,-1.717 0.606,-3.183 1.819,-4.395 1.162,-1.162 2.627,-1.743 4.395,-1.743 2.703,0 4.597,1.238 5.684,3.713 0.328,0.733 0.493,1.541 0.493,2.425 0,1.769 -0.606,3.234 -1.819,4.396 -1.213,1.188 -2.665,1.781 -4.358,1.781 z"
       id="path4852"
       inkscape:connector-curvature="0"
       style="fill:#ff5d76" /></g><path
     d="m 10.759,12.993 c 0,0 -0.911,-5.68 2.654,-8.904 3.565,-3.225 7.205,-1.407 12.2,-1.812 C 30.608,1.872 32.352,0 32.352,0 c 0,0 1.018,6.854 -2.846,10.209 -5.109,4.437 -18.747,2.784 -18.747,2.784 z"
     id="path4864"
     inkscape:connector-curvature="0"
     style="fill:#aad23f" /></svg>