<?xml version="1.0" encoding="utf-8"?>
<!-- Generator: Adobe Illustrator 16.0.4, SVG Export Plug-In . SVG Version: 6.00 Build 0)  -->
<!DOCTYPE svg PUBLIC "-//W3C//DTD SVG 1.1//EN" "http://www.w3.org/Graphics/SVG/1.1/DTD/svg11.dtd">
<svg version="1.1" id="Layer_1" xmlns="http://www.w3.org/2000/svg" xmlns:xlink="http://www.w3.org/1999/xlink" x="0px" y="0px"
	 width="312.333px" height="96.396px" viewBox="0 0 312.333 96.396" enable-background="new 0 0 312.333 96.396"
	 xml:space="preserve">
<g>
	<path fill="#FF5D76" d="M30.031,36.805c0,1.415-0.796,2.122-2.387,2.122h-9.245v32.168c0,0.809-0.228,1.459-0.682,1.952
		s-1.086,0.739-1.895,0.739h-3.713c-0.884,0-1.566-0.246-2.046-0.739c-0.48-0.493-0.72-1.143-0.72-1.952V38.926H4
		c-1.591,0-2.387-0.72-2.387-2.16v-2.122c0-0.581,0.157-1.016,0.473-1.307c0.316-0.29,0.903-0.562,1.762-0.814l5.646-0.91
		c-1.288-3.384-2.04-5.892-2.254-7.521c-0.215-1.629-0.322-3.183-0.322-4.661c0-1.478,0.328-3.024,0.985-4.641
		c0.657-1.616,1.616-3.044,2.879-4.282c2.829-2.778,6.593-4.168,11.292-4.168c3.713,0,6.908,0.796,9.586,2.387
		c1.49,0.909,2.236,1.724,2.236,2.444s-0.228,1.396-0.682,2.027l-1.819,2.577c-0.505,0.682-0.979,1.023-1.421,1.023
		s-0.865-0.126-1.269-0.379c-0.404-0.252-0.885-0.53-1.44-0.833c-1.491-0.808-3.208-1.212-5.153-1.212
		c-4.269,0-6.403,2.69-6.403,8.071c0,2.602,0.581,5.469,1.743,8.601h10.192c1.591,0,2.387,0.695,2.387,2.084V36.805z"/>
	<path fill="#FF6D70" d="M38.002,33.773c0-1.819,0.796-2.729,2.387-2.729h2.046c1.389,0,2.374,0.606,2.956,1.819
		c0.833,1.769,1.44,4.206,1.819,7.313c0,0.051,0.019,0.076,0.057,0.076c0.038,0,0.12-0.429,0.247-1.288
		c0.126-0.858,0.492-1.914,1.099-3.164c0.606-1.25,1.351-2.305,2.235-3.164c1.793-1.692,3.991-2.539,6.593-2.539
		c2.905,0,4.926,0.48,6.062,1.439c0.531,0.43,0.745,1.023,0.644,1.781l-0.606,4.774c-0.152,1.288-0.809,1.932-1.97,1.932
		c-0.556,0-1.238-0.113-2.046-0.341c-1.566-0.404-2.804-0.606-3.713-0.606c-0.91,0-1.87,0.398-2.88,1.194
		c-1.011,0.795-1.882,1.787-2.614,2.974c-1.491,2.476-2.235,5.115-2.235,7.919v20.12c0,0.708-0.203,1.302-0.606,1.781
		c-0.404,0.48-0.985,0.72-1.743,0.72h-4.395c-0.809,0-1.421-0.24-1.838-0.72c-0.417-0.479-0.625-1.074-0.625-1.781V45.178
		c0-4.446-0.146-7.382-0.436-8.81C38.147,34.942,38.002,34.076,38.002,33.773z"/>
	<path fill="#FB8675" d="M109.577,71.208c0,1.718-0.783,2.577-2.35,2.577h-1.705c-1.516,0-2.514-0.606-2.994-1.819
		c-0.53-1.389-1.099-3.321-1.705-5.797c-1.061,2.652-2.86,4.743-5.399,6.271c-2.539,1.528-5.702,2.292-9.491,2.292
		c-4.951,0-8.601-1.547-10.95-4.642c-2.349-3.094-3.524-7.66-3.524-13.697V33.546c0-0.707,0.221-1.301,0.663-1.781
		c0.442-0.479,1.067-0.72,1.875-0.72h4.168c1.667,0,2.501,0.834,2.501,2.501v22.431c0,6.037,1.402,9.523,4.206,10.458
		c0.91,0.303,1.989,0.455,3.24,0.455s2.539-0.29,3.865-0.872c1.326-0.581,2.52-1.351,3.581-2.311
		c2.374-2.198,3.562-4.711,3.562-7.54V33.546c0-0.707,0.214-1.301,0.645-1.781c0.429-0.479,1.111-0.72,2.046-0.72h3.979
		c0.884,0,1.528,0.241,1.932,0.72c0.404,0.48,0.606,1.074,0.606,1.781v23.681c0,5.33,0.379,9.624,1.137,12.883
		C109.539,70.388,109.577,70.754,109.577,71.208z"/>
	<path fill="#FF5D76" d="M125.574,23.732c-1.718,0-3.183-0.593-4.395-1.781c-1.212-1.162-1.819-2.627-1.819-4.396
		c0-1.717,0.606-3.183,1.819-4.395c1.162-1.162,2.627-1.743,4.395-1.743c2.703,0,4.597,1.238,5.684,3.713
		c0.328,0.733,0.493,1.541,0.493,2.425c0,1.769-0.606,3.234-1.819,4.396C128.719,23.139,127.267,23.732,125.574,23.732z"/>
	<path fill="#FB9E67" d="M130.007,63.365c0,1.794,0.593,2.69,1.781,2.69c0.404,0,0.859-0.114,1.364-0.341
		c0.985-0.429,1.654-0.644,2.008-0.644c0.53,0,0.959,0.367,1.288,1.099l1.175,2.652c0.202,0.43,0.303,0.833,0.303,1.212
		c0,1.086-0.935,2.097-2.804,3.031c-1.769,0.909-3.518,1.364-5.248,1.364c-1.73,0-3.114-0.189-4.149-0.568
		c-1.036-0.379-1.92-1.01-2.652-1.895c-1.465-1.818-2.198-4.774-2.198-8.866V33.546c0-0.707,0.202-1.301,0.606-1.781
		c0.403-0.479,0.884-0.72,1.439-0.72H128c0.581,0,1.061,0.241,1.439,0.72c0.379,0.48,0.568,1.074,0.568,1.781V63.365z"/>
	<path fill="#FBB03B" d="M169.981,36.805c0,1.415-0.795,2.122-2.387,2.122h-10.685v23.795c0,2.577,1.275,3.865,3.827,3.865
		c1.616,0,3.726-0.808,6.328-2.425c0.505-0.328,1.054-0.493,1.648-0.493c0.593,0,1.066,0.417,1.42,1.25l0.872,1.97
		c0.328,0.758,0.493,1.402,0.493,1.933c0,0.53-0.398,1.143-1.193,1.837c-0.796,0.695-1.813,1.32-3.05,1.875
		c-2.804,1.263-5.342,1.895-7.616,1.895s-4.073-0.234-5.399-0.701c-1.326-0.467-2.457-1.168-3.391-2.103
		c-2.021-1.97-3.031-4.812-3.031-8.525V38.926h-3.183c-1.591,0-2.387-0.72-2.387-2.16v-2.16c0-0.581,0.151-1.036,0.455-1.364
		c0.303-0.328,0.896-0.581,1.781-0.758l3.789-1.099l1.44-8.904c0.277-1.667,0.959-2.5,2.046-2.5h3.145
		c0.581,0,1.061,0.234,1.44,0.701c0.378,0.468,0.568,1.067,0.568,1.8v8.563h10.685c1.592,0,2.387,0.695,2.387,2.084V36.805z"/>
	<path fill="#E6C531" d="M211.736,31.045c1.616,0,2.425,0.796,2.425,2.387c0,1.844-0.96,5.924-2.88,12.239l-2.349,7.237
		c-5.532,15.863-12.39,28.922-20.574,39.178l-0.758,0.947c-1.162,1.49-2.349,2.236-3.562,2.236c-1.289,0-2.779-0.897-4.471-2.69
		c-0.48-0.505-0.72-1.086-0.72-1.743c0-1.061,0.568-2.178,1.705-3.353s2.185-2.349,3.145-3.524c0.96-1.174,1.869-2.355,2.728-3.542
		c1.566-2.147,2.98-4.408,4.244-6.782c-3.94-10.634-6.328-17-7.161-19.097l-4.13-10.269l-2.917-6.63
		c-1.086-2.526-1.629-4.06-1.629-4.604c0-0.542,0.233-1.01,0.701-1.402c0.467-0.391,1.13-0.587,1.989-0.587h4.774
		c1.111,0,1.97,0.632,2.577,1.895c0.455,0.935,1.073,2.476,1.856,4.623c1.591,4.648,2.753,8.096,3.486,10.344l3.069,10.041
		c0.303,1.01,0.53,1.818,0.682,2.425l0.341,1.364c0.076,0.303,0.164,0.682,0.265,1.137l0.341,1.439
		c0.126,0.506,0.265,0.758,0.417,0.758s0.322-0.151,0.512-0.455s0.385-0.694,0.587-1.174l0.645-1.592
		c2.626-6.744,5.115-16.191,7.464-28.342c0.303-1.642,1.25-2.463,2.842-2.463H211.736z"/>
	<path fill="#C6CC31" d="M249.582,36.388V8.993c0-0.657,0.195-1.218,0.587-1.686c0.392-0.467,0.877-0.701,1.459-0.701h5.267
		c0.581,0,1.061,0.234,1.44,0.701c0.379,0.468,0.568,1.029,0.568,1.686v48.575c0,5.103,0.404,9.334,1.212,12.693
		c0.076,0.354,0.114,0.802,0.114,1.345c0,0.543-0.234,1.042-0.701,1.497c-0.468,0.455-1.067,0.682-1.8,0.682h-1.856
		c-1.491,0-2.488-0.606-2.993-1.819c-0.657-1.541-1.2-3.574-1.629-6.1c-1.945,4.118-5.216,6.858-9.813,8.222
		c-1.516,0.429-3.404,0.644-5.665,0.644c-2.261,0-4.509-0.582-6.745-1.743c-2.235-1.161-4.136-2.74-5.702-4.736
		c-3.208-4.143-4.812-9.296-4.812-15.459c0-6.365,1.554-11.645,4.661-15.838c3.359-4.572,7.843-6.858,13.451-6.858
		C242.231,30.098,246.551,32.195,249.582,36.388z M228.212,53.059c0,1.718,0.208,3.398,0.625,5.04
		c0.417,1.643,1.055,3.107,1.914,4.396c1.919,2.93,4.572,4.395,7.957,4.395c3.082,0,5.784-1.338,8.108-4.016
		c2.475-2.779,3.713-6.062,3.713-9.852c0-4.597-1.2-8.285-3.599-11.064c-2.299-2.652-5.128-3.979-8.488-3.979
		c-3.511,0-6.176,1.655-7.995,4.964C228.957,45.722,228.212,49.094,228.212,53.059z"/>
	<path fill="#AAD23F" d="M304.819,36.198c-3.764-4.067-9.069-6.1-15.914-6.1c-6.113,0-11.178,2.033-15.194,6.1
		c-1.92,1.945-3.429,4.288-4.528,7.029c-1.099,2.741-1.648,5.753-1.648,9.037c0,6.644,1.945,12.024,5.835,16.141
		c3.915,4.219,9.094,6.328,15.535,6.328c6.112,0,11.177-2.059,15.194-6.176c4.117-4.192,6.176-9.599,6.176-16.217
		C310.275,45.494,308.457,40.114,304.819,36.198z M298.075,62.646c-2.046,2.829-5.053,4.244-9.018,4.244
		c-3.89,0-6.921-1.44-9.094-4.319c-0.985-1.313-1.724-2.81-2.216-4.49c-0.493-1.68-0.739-3.435-0.739-5.267
		c0-1.831,0.214-3.637,0.644-5.418c0.429-1.781,1.118-3.372,2.065-4.774s2.172-2.526,3.675-3.372c1.502-0.846,3.347-1.27,5.532-1.27
		c2.185,0,4.048,0.442,5.589,1.326c4.193,2.425,6.29,6.833,6.29,13.224C300.803,56.798,299.893,60.17,298.075,62.646z"/>
</g>
<path fill="#AAD23F" d="M130.119,13.083c0,0-0.911-5.68,2.654-8.904c3.565-3.225,7.205-1.407,12.2-1.812s6.739-2.277,6.739-2.277
	s1.018,6.854-2.846,10.209C143.757,14.736,130.119,13.083,130.119,13.083z"/>
</svg>
