<?xml version="1.0" encoding="UTF-8" standalone="no"?>
<svg
   xmlns:dc="http://purl.org/dc/elements/1.1/"
   xmlns:cc="http://creativecommons.org/ns#"
   xmlns:rdf="http://www.w3.org/1999/02/22-rdf-syntax-ns#"
   xmlns:svg="http://www.w3.org/2000/svg"
   xmlns="http://www.w3.org/2000/svg"
   xmlns:sodipodi="http://sodipodi.sourceforge.net/DTD/sodipodi-0.dtd"
   xmlns:inkscape="http://www.inkscape.org/namespaces/inkscape"
   height="27"
   version="1.1"
   viewBox="0 0 27 27"
   width="27"
   id="svg2"
   inkscape:version="0.91 r13725"
   sodipodi:docname="delete-trash-icon-scalable.svg"
   inkscape:export-filename="/home/alex/build/newtodo/static/trashicon.png"
   inkscape:export-xdpi="107.14286"
   inkscape:export-ydpi="107.14286">
  <metadata
     id="metadata15">
    <rdf:RDF>
      <cc:Work
         rdf:about="">
        <dc:format>image/svg+xml</dc:format>
        <dc:type
           rdf:resource="http://purl.org/dc/dcmitype/StillImage" />
        <dc:title></dc:title>
      </cc:Work>
    </rdf:RDF>
  </metadata>
  <sodipodi:namedview
     pagecolor="#ffffff"
     bordercolor="#666666"
     borderopacity="1"
     objecttolerance="10"
     gridtolerance="10"
     guidetolerance="10"
     inkscape:pageopacity="0"
     inkscape:pageshadow="2"
     inkscape:window-width="3172"
     inkscape:window-height="1740"
     id="namedview13"
     showgrid="false"
     inkscape:zoom="29.5"
     inkscape:cx="12.101093"
     inkscape:cy="18.500262"
     inkscape:window-x="14"
     inkscape:window-y="46"
     inkscape:window-maximized="0"
     inkscape:current-layer="svg2"
     fit-margin-top="0"
     fit-margin-left="0"
     fit-margin-right="0"
     fit-margin-bottom="0" />
  <desc
     id="desc6" />
  <defs
     id="defs8" />
  <g
     id="Page-1"
     style="fill:none;fill-rule:evenodd;stroke:none;stroke-width:1"
     transform="translate(-3,-3)">
    <g
       id="icon-27-trash-can"
       style="fill:#929292">
      <path
         d="m 23,7 -2,0 0,0 0,-1.9951185 C 21,3.897616 20.104142,3 19.002608,3 L 13.997392,3 C 12.894263,3 12,3.8938998 12,5.0048815 L 12,7 10,7 6,7 6,8 8,8 8,26.993152 C 8,28.653788 9.3339615,30 11.000126,30 l 10.999748,0 C 23.656798,30 25,28.664009 25,26.993152 L 25,8 l 2,0 0,-1 -4,0 0,0 0,0 z M 9,8 9,27.005438 C 9,28.107004 9.8933973,29 10.991884,29 l 11.016232,0 C 23.108203,29 24,28.097656 24,27.005438 L 24,8 9,8 9,8 Z m 3,2 0,17 1,0 0,-17 -1,0 0,0 z m 4,0 0,17 1,0 0,-17 -1,0 0,0 z m 4,0 0,17 1,0 0,-17 -1,0 0,0 z M 14.002929,4 C 13.449027,4 13,4.4426603 13,4.9989566 L 13,7 20,7 20,4.9989566 C 20,4.4472481 19.562119,4 18.997071,4 l -4.994142,0 0,0 z"
         id="trash-can"
         style="fill:#ff5d76;fill-opacity:1"
         inkscape:connector-curvature="0" />
    </g>
  </g>
</svg>
