<?xml version="1.0" encoding="UTF-8" standalone="no"?>
<svg
   xmlns:dc="http://purl.org/dc/elements/1.1/"
   xmlns:cc="http://creativecommons.org/ns#"
   xmlns:rdf="http://www.w3.org/1999/02/22-rdf-syntax-ns#"
   xmlns:svg="http://www.w3.org/2000/svg"
   xmlns="http://www.w3.org/2000/svg"
   xmlns:sodipodi="http://sodipodi.sourceforge.net/DTD/sodipodi-0.dtd"
   xmlns:inkscape="http://www.inkscape.org/namespaces/inkscape"
   height="20.174255"
   version="1.1"
   viewBox="0 0 20.170164 20.174255"
   width="20.170164"
   id="svg4240"
   inkscape:version="0.91 r13725"
   sodipodi:docname="edit-pencil-icon.svg"
   inkscape:export-filename="/home/alex/build/newtodo/static/pencilicon.png"
   inkscape:export-xdpi="142.7562"
   inkscape:export-ydpi="142.7562">
  <metadata
     id="metadata4253">
    <rdf:RDF>
      <cc:Work
         rdf:about="">
        <dc:format>image/svg+xml</dc:format>
        <dc:type
           rdf:resource="http://purl.org/dc/dcmitype/StillImage" />
        <dc:title></dc:title>
      </cc:Work>
    </rdf:RDF>
  </metadata>
  <sodipodi:namedview
     pagecolor="#ffffff"
     bordercolor="#666666"
     borderopacity="1"
     objecttolerance="10"
     gridtolerance="10"
     guidetolerance="10"
     inkscape:pageopacity="0"
     inkscape:pageshadow="2"
     inkscape:window-width="3172"
     inkscape:window-height="1740"
     id="namedview4251"
     showgrid="false"
     fit-margin-top="0"
     fit-margin-left="0"
     fit-margin-right="0"
     fit-margin-bottom="0"
     inkscape:zoom="129.94441"
     inkscape:cx="10.085082"
     inkscape:cy="18.170838"
     inkscape:window-x="14"
     inkscape:window-y="46"
     inkscape:window-maximized="0"
     inkscape:current-layer="svg4240" />
  <desc
     id="desc4244" />
  <defs
     id="defs4246" />
  <g
     id="Page-1"
     style="fill:none;fill-rule:evenodd;stroke:none;stroke-width:1"
     transform="translate(-10,-5.8257448)">
    <g
       id="icon-136-document-edit"
       style="fill:#929292">
      <path
         d="m 26.443228,12.150335 -11.286215,11.299571 0,0 L 12.551447,20.84434 23.843538,9.5506451 Z m 0.706688,-0.707525 1.729179,-1.731226 c 0.389974,-0.3904351 0.3871,-1.0250798 -0.0048,-1.415899 L 27.694487,7.11911 C 27.301865,6.7275656 26.669258,6.7245247 26.277913,7.1159253 L 24.550595,8.8434882 Z M 11.903706,21.610813 11.26416,24.72351 14.399065,24.106171 Z M 22,18 29.580107,10.419893 c 0.784185,-0.7841852 0.786081,-2.0537049 0.0096,-2.8301434 L 28.41025,6.4102504 C 27.631391,5.6313906 26.372781,5.627219 25.580107,6.4198933 L 22,10 l -1,1 -10,10 -1,5 5,-1 6,-6"
         id="document-edit"
         inkscape:connector-curvature="0"
         sodipodi:nodetypes="ccccccccsssscccccccccsccsccc"
         style="fill:#fb8675;fill-opacity:1" />
    </g>
  </g>
</svg>
