<?xml version="1.0" encoding="utf-8"?>
<!-- Generator: Adobe Illustrator 16.0.4, SVG Export Plug-In . SVG Version: 6.00 Build 0)  -->
<!DOCTYPE svg PUBLIC "-//W3C//DTD SVG 1.1//EN" "http://www.w3.org/Graphics/SVG/1.1/DTD/svg11.dtd">
<svg version="1.1" id="Layer_1" xmlns="http://www.w3.org/2000/svg" xmlns:xlink="http://www.w3.org/1999/xlink" x="0px" y="0px"
	 width="596.97px" height="472px" viewBox="0 0 596.97 472" enable-background="new 0 0 596.97 472" xml:space="preserve">
<ellipse fill="#CCCCCC" cx="149.223" cy="430.666" rx="92" ry="8.98"/>
<path fill="#FF5D76" d="M143.85,414.188c-37.497,0-69.474-12.961-95.938-38.884c-26.466-25.345-39.705-57.333-39.705-95.94
	c0-37.485,13.239-69.473,39.705-95.939c25.356-25.356,57.344-38.052,95.938-38.052c58.997,0,100.353,27.032,124.058,81.062
	c7.163,15.999,10.766,33.639,10.766,52.93c0,38.607-13.238,70.596-39.715,95.94C212.503,401.227,180.804,414.188,143.85,414.188z"/>
<linearGradient id="SVGID_1_" gradientUnits="userSpaceOnUse" x1="96.8501" y1="434.8809" x2="176.8058" y2="164.5905">
	<stop  offset="0.0024" style="stop-color:#DB2A3D"/>
	<stop  offset="0.9975" style="stop-color:#FF5D76"/>
</linearGradient>
<path fill="url(#SVGID_1_)" d="M144.02,406.595c-36.216,0-67.099-12.518-92.66-37.555c-25.562-24.479-38.348-55.374-38.348-92.662
	c0-36.204,12.787-67.099,38.348-92.661c24.489-24.49,55.385-36.752,92.66-36.752c56.981,0,96.925,26.109,119.819,78.292
	c6.918,15.452,10.397,32.489,10.397,51.121c0,37.288-12.786,68.183-38.357,92.662C210.328,394.077,179.712,406.595,144.02,406.595z"
	/>
<path fill="#DB2A3D" d="M193.367,185.871c0,0,28.153,3.376,46.439,22.629c22.084,23.25,37.387,55.828,32.857,89.683
	c1.529-6.502,6.4-21.2,3.893-41.933c-2.01-16.634-8.67-36.366-28.248-63.387c-9.502-13.113-14.488-14.011-19.999-17.598
	c-7.967-5.186-14.319-0.561-19.753,1.135C197.705,179.789,193.367,185.871,193.367,185.871z"/>
<path fill="#AAD23F" d="M193.367,185.871c0,0,4.183-95.043,72.674-135.404c68.492-40.368,121.413,1.215,203.666,11.307
	c82.268,10.098,116.768-14.433,116.768-14.433s-6.357,114.419-80.141,155.9c-59.379,33.404-156.1,2.596-227.66-13.241
	C232.695,179.825,193.367,185.871,193.367,185.871z"/>
<circle cx="114.225" cy="283.333" r="9.668"/>
<circle fill="#FFFFFF" cx="110.23" cy="279.337" r="1.663"/>
<circle cx="189.224" cy="283.333" r="9.668"/>
<circle fill="#FFFFFF" cx="185.229" cy="279.337" r="1.663"/>
<path d="M156.555,306.668c10.56-1.509,12,8,8.667,10s-4.667,0-8.667,0s-8.667,3.109-12,0.889
	C141.221,315.334,147.222,308,156.555,306.668z"/>
<g>
	<g>
		<path fill="#DB2A3D" d="M101.557,307.993c0,0,0.492-0.728,1.322-1.727c0.825-1.004,1.986-2.283,3.203-3.505
			c1.222-1.218,2.5-2.379,3.504-3.204c0.999-0.83,1.728-1.321,1.728-1.321s-0.491,0.729-1.321,1.728
			c-0.825,1.005-1.986,2.282-3.204,3.504c-1.222,1.218-2.501,2.378-3.505,3.203C102.285,307.502,101.557,307.993,101.557,307.993z"
			/>
	</g>
	<g>
		<path fill="#DB2A3D" d="M103.611,309.533c0,0,0.186-0.24,0.528-0.644c0.35-0.396,0.829-0.981,1.44-1.648
			c1.212-1.343,2.887-3.071,4.618-4.743c1.735-1.667,3.525-3.276,4.913-4.437c0.689-0.585,1.293-1.041,1.703-1.375
			c0.416-0.327,0.663-0.504,0.663-0.504s-0.186,0.24-0.528,0.644c-0.349,0.396-0.828,0.983-1.439,1.649
			c-1.211,1.343-2.888,3.071-4.619,4.742c-1.735,1.666-3.527,3.274-4.914,4.436c-0.689,0.585-1.293,1.042-1.702,1.376
			C103.858,309.356,103.611,309.533,103.611,309.533z"/>
	</g>
	<g>
		<path fill="#DB2A3D" d="M106.178,310.561c0,0,0.211-0.249,0.597-0.668c0.393-0.41,0.934-1.02,1.619-1.711
			c1.359-1.394,3.229-3.189,5.152-4.925c1.928-1.731,3.909-3.403,5.438-4.608c0.759-0.608,1.422-1.082,1.872-1.43
			c0.457-0.34,0.727-0.523,0.727-0.523s-0.211,0.25-0.597,0.668c-0.393,0.411-0.934,1.021-1.618,1.712
			c-1.359,1.395-3.23,3.188-5.153,4.924c-1.928,1.73-3.91,3.401-5.439,4.607c-0.76,0.608-1.421,1.083-1.872,1.431
			C106.448,310.377,106.178,310.561,106.178,310.561z"/>
	</g>
	<g>
		<path fill="#DB2A3D" d="M111.313,310.561c0,0,0.18-0.214,0.51-0.569c0.337-0.349,0.8-0.868,1.389-1.452
			c1.169-1.179,2.783-2.687,4.45-4.133c1.671-1.442,3.394-2.824,4.729-3.812c0.663-0.499,1.244-0.882,1.637-1.165
			c0.399-0.275,0.637-0.423,0.637-0.423s-0.18,0.214-0.51,0.57c-0.337,0.348-0.799,0.868-1.389,1.452
			c-1.168,1.18-2.783,2.686-4.45,4.132c-1.671,1.442-3.395,2.823-4.729,3.811c-0.663,0.499-1.243,0.882-1.636,1.166
			C111.551,310.413,111.313,310.561,111.313,310.561z"/>
	</g>
	<g>
		<path fill="#DB2A3D" d="M119.529,308.507c0,0,0.391-0.56,1.064-1.3c0.668-0.745,1.615-1.675,2.614-2.544
			c1.003-0.864,2.059-1.669,2.893-2.223c0.829-0.561,1.439-0.866,1.439-0.866s-0.391,0.561-1.064,1.301
			c-0.667,0.746-1.615,1.675-2.614,2.543c-1.004,0.864-2.06,1.668-2.894,2.222C120.139,308.2,119.529,308.507,119.529,308.507z"/>
	</g>
</g>
<g>
	<g>
		<path fill="#DB2A3D" d="M180.556,309.993c0,0,0.491-0.728,1.322-1.727c0.825-1.004,1.986-2.283,3.203-3.505
			c1.222-1.218,2.5-2.379,3.505-3.204c0.999-0.83,1.728-1.321,1.728-1.321s-0.491,0.729-1.321,1.728
			c-0.825,1.005-1.986,2.282-3.204,3.504c-1.223,1.218-2.501,2.378-3.506,3.203C181.285,309.502,180.556,309.993,180.556,309.993z"
			/>
	</g>
	<g>
		<path fill="#DB2A3D" d="M182.611,311.533c0,0,0.187-0.24,0.528-0.644c0.35-0.396,0.829-0.981,1.439-1.648
			c1.213-1.343,2.888-3.071,4.618-4.743c1.735-1.667,3.525-3.276,4.914-4.437c0.688-0.585,1.293-1.041,1.702-1.375
			c0.416-0.327,0.663-0.504,0.663-0.504s-0.186,0.24-0.528,0.644c-0.35,0.396-0.828,0.983-1.438,1.649
			c-1.212,1.343-2.889,3.071-4.619,4.742c-1.735,1.666-3.527,3.274-4.915,4.436c-0.688,0.585-1.293,1.042-1.701,1.376
			C182.858,311.356,182.611,311.533,182.611,311.533z"/>
	</g>
	<g>
		<path fill="#DB2A3D" d="M185.178,312.561c0,0,0.211-0.249,0.597-0.668c0.394-0.41,0.935-1.02,1.619-1.711
			c1.359-1.394,3.229-3.189,5.152-4.925c1.928-1.731,3.908-3.403,5.438-4.608c0.76-0.608,1.423-1.082,1.873-1.43
			c0.456-0.34,0.727-0.523,0.727-0.523s-0.211,0.25-0.597,0.668c-0.393,0.411-0.934,1.021-1.618,1.712
			c-1.359,1.395-3.229,3.188-5.153,4.924c-1.929,1.73-3.91,3.401-5.438,4.607c-0.76,0.608-1.422,1.083-1.872,1.431
			C185.449,312.377,185.178,312.561,185.178,312.561z"/>
	</g>
	<g>
		<path fill="#DB2A3D" d="M190.314,312.561c0,0,0.18-0.214,0.511-0.569c0.337-0.349,0.8-0.868,1.389-1.452
			c1.168-1.179,2.782-2.687,4.449-4.133c1.671-1.442,3.394-2.824,4.728-3.812c0.663-0.499,1.244-0.882,1.637-1.165
			c0.4-0.275,0.638-0.423,0.638-0.423s-0.18,0.214-0.51,0.57c-0.337,0.348-0.799,0.868-1.389,1.452
			c-1.168,1.18-2.783,2.686-4.45,4.132c-1.671,1.442-3.395,2.823-4.729,3.811c-0.663,0.499-1.243,0.882-1.637,1.166
			C190.551,312.413,190.314,312.561,190.314,312.561z"/>
	</g>
	<g>
		<path fill="#DB2A3D" d="M198.529,310.507c0,0,0.392-0.56,1.064-1.3c0.669-0.745,1.615-1.675,2.614-2.545
			c1.004-0.863,2.059-1.668,2.894-2.222c0.829-0.561,1.439-0.866,1.439-0.866s-0.391,0.561-1.064,1.301
			c-0.667,0.746-1.615,1.675-2.614,2.543c-1.004,0.864-2.061,1.668-2.895,2.222C199.139,310.2,198.529,310.507,198.529,310.507z"/>
	</g>
</g>
<g>
	<path fill="#76A500" d="M202.535,172.333c0,0,0.728-1.419,2.272-3.981c1.55-2.557,3.89-6.28,7.209-10.784
		c3.312-4.506,7.536-9.851,12.848-15.578c5.307-5.728,11.639-11.908,19.146-17.966c7.499-6.055,16.096-12.101,25.835-17.411
		c4.839-2.71,10.001-5.14,15.344-7.475c2.612-1.127,5.401-2.267,8.167-3.308c1.387-0.531,2.792-1.036,4.211-1.523
		c1.411-0.507,2.845-0.972,4.284-1.439c5.758-1.869,11.712-3.486,17.818-4.79c6.104-1.312,12.356-2.342,18.707-2.939
		c12.697-1.244,25.732-1.017,38.57,0.504c12.847,1.527,25.447,4.396,37.63,7.618c12.198,3.181,23.958,6.939,35.451,9.581
		c5.74,1.327,11.419,2.339,16.979,2.849c0.695,0.074,1.388,0.109,2.079,0.161l0.518,0.036l0.491,0.021l1.067,0.042
		c1.42,0.056,2.832,0.111,4.235,0.167c2.752,0.003,5.458,0.077,8.163-0.042c2.7-0.037,5.352-0.25,7.97-0.409
		c2.607-0.257,5.18-0.488,7.693-0.847c5.03-0.669,9.869-1.54,14.437-2.704c9.143-2.287,17.279-5.372,24.148-8.81
		c6.885-3.42,12.516-7.136,16.928-10.483c4.39-3.383,7.608-6.353,9.697-8.479c2.094-2.124,3.124-3.344,3.124-3.344
		s-0.938,1.288-2.883,3.566c-1.949,2.267-4.928,5.524-9.181,9.188c-4.256,3.646-9.736,7.782-16.604,11.592
		c-3.425,1.913-7.165,3.793-11.229,5.509c-4.067,1.706-8.451,3.245-13.101,4.604c-9.303,2.688-19.716,4.559-30.81,5.109
		c-2.763,0.199-5.608,0.204-8.473,0.275c-1.404-0.016-2.816-0.032-4.238-0.049l-1.067-0.012l-0.577-0.01l-0.552-0.022
		c-0.735-0.034-1.476-0.053-2.211-0.109c-5.908-0.363-11.829-1.379-17.747-2.624c-11.834-2.546-23.704-6.005-35.776-9.145
		c-12.069-3.136-24.405-5.813-36.875-7.292c-12.453-1.545-25.038-1.832-37.314-0.699c-12.276,1.1-24.248,3.496-35.509,6.954
		c-1.408,0.432-2.811,0.86-4.193,1.331c-1.39,0.45-2.766,0.922-4.128,1.413c-2.752,0.951-5.373,1.935-8.07,3.01
		c-5.248,2.126-10.336,4.36-15.121,6.877c-9.604,4.966-18.262,10.499-25.832,16.188c-7.559,5.705-14.109,11.456-19.607,16.875
		c-5.485,5.433-10.006,10.447-13.533,14.742c-3.527,4.294-6.154,7.797-7.854,10.248
		C203.357,170.967,202.535,172.333,202.535,172.333z"/>
</g>
<path fill="#FFFFFF" d="M98.705,181.752l-9.614-5.264c0,0-7.18-1.013-14.499,3.853c-9.25,6.149-9.681,13.694-9.681,13.694
	l3.675,7.391c0,0,4.316-8.348,12.077-12.822C90.37,183.007,98.705,181.752,98.705,181.752z"/>
<path fill="#DB2A3D" d="M240.705,344.346c0,0-3.969,8.922-13.035,8.818c-9.067-0.104-13.013-2.8-13.013-2.8
	s0.27-12.987-2.819-12.857c-3.09,0.13-1.059,12.304-1.059,12.304s-5.16-8.643-8.543-6.861c-3.385,1.781,5.861,11.025,5.861,11.025
	s-9.586,2.847-8.115,6.062c1.471,3.216,12.822-2.482,12.822-2.482s16.998,5.407,25.609,2.865
	C251.977,356.415,240.705,344.346,240.705,344.346z"/>
<path fill="#FF5D76" d="M243.556,342.234c0,0-6.333,7.433-15,4.766c-8.666-2.667-11.687-6.37-11.687-6.37s3.937-12.38,0.937-13.13
	s-4.5,11.5-4.5,11.5s-2.5-9.75-6.25-9s2.5,12.234,2.5,12.234s-10,0.016-9.5,3.516s13,1.25,13,1.25s14.771,10,23.75,10.001
	C250.949,357.002,243.556,342.234,243.556,342.234z"/>
<path fill="#DB2A3D" d="M50.958,345.016c0,0,12.234,12.02,23.858,13.59c8.986,1.215,12.87-3.396,12.87-3.396
	s-0.868-12.961,2.225-12.973c3.092-0.013,1.625,12.241,1.625,12.241s4.755-8.871,8.218-7.247c3.463,1.623-5.349,11.283-5.349,11.283
	s9.707,2.402,8.386,5.682c-1.321,3.279-12.922-1.89-12.922-1.89s-11.354,9.894-29.514,2.083
	C47.363,358.8,50.958,345.016,50.958,345.016z"/>
<path fill="#FF5D76" d="M47.557,340.5c0,0,14.75,8.75,26.413,7.5c9.016-0.966,11.687-6.37,11.687-6.37s-3.937-12.38-0.937-13.13
	s4.5,11.5,4.5,11.5s2.5-9.75,6.25-9s-2.5,12.234-2.5,12.234s10,0.016,9.5,3.516s-13,1.25-13,1.25s-8.663,12.318-28.163,9.068
	C47.357,354.743,47.557,340.5,47.557,340.5z"/>
<path fill="#FF5D76" d="M114.402,407v14c0,0-15.423-1.5-15.923,3.5s26.022,2.5,26.022,2.5l-2.837-20H114.402z"/>
<path fill="#FF5D76" d="M182.402,407v14c0,0,15.565-1.5,16.065,3.5s-25.95,2.5-25.95,2.5l2.908-20H182.402z"/>
<path fill="#FF5D76" d="M146.059,311.533c0,0,1.832-0.079,4.498,1.027s3.021,4.532,3.021,4.532s-4.771,2.076-7.854,1.264
	C140.978,317.106,143.44,313.669,146.059,311.533z"/>
<g>
	<path fill="#AAD23F" d="M177.056,259.5c0,0,0.163,0.29,0.448,0.797c0.291,0.496,0.685,1.199,1.205,1.984
		c0.258,0.392,0.524,0.819,0.856,1.228c0.301,0.429,0.65,0.85,1.03,1.255c0.373,0.41,0.781,0.802,1.221,1.158l0.336,0.26
		c0.038,0.031,0.152,0.116,0.128,0.104l0.205,0.129c0.272,0.163,0.552,0.361,0.812,0.51c0.25,0.128,0.503,0.25,0.749,0.391
		c0.271,0.117,0.543,0.235,0.812,0.352c0.552,0.209,1.112,0.368,1.665,0.513c1.108,0.265,2.196,0.389,3.141,0.424
		c0.946,0.049,1.752,0.012,2.318-0.024c0.569-0.03,0.897-0.079,0.897-0.079s-0.283,0.172-0.817,0.408
		c-0.535,0.229-1.326,0.504-2.32,0.701c-0.993,0.185-2.192,0.289-3.483,0.154c-0.648-0.051-1.307-0.204-1.972-0.382
		c-0.328-0.108-0.659-0.218-0.991-0.327c-0.336-0.143-0.666-0.303-1-0.458c-0.308-0.161-0.568-0.325-0.85-0.493l-0.207-0.126
		c-0.156-0.104-0.168-0.12-0.258-0.186l-0.429-0.323c-0.275-0.225-0.521-0.475-0.772-0.711c-0.223-0.262-0.456-0.51-0.655-0.773
		c-0.792-1.066-1.304-2.173-1.612-3.146C176.893,260.877,177.056,259.5,177.056,259.5z"/>
</g>
<g>
	<path fill="#AAD23F" d="M131.881,259.5c0,0,0.163,1.377-0.457,3.338c-0.309,0.975-0.82,2.08-1.612,3.146
		c-0.199,0.264-0.433,0.512-0.655,0.773c-0.253,0.236-0.498,0.487-0.773,0.712l-0.428,0.323c-0.091,0.064-0.102,0.081-0.258,0.186
		l-0.207,0.125c-0.281,0.168-0.542,0.333-0.851,0.493c-0.333,0.155-0.664,0.316-0.999,0.458c-0.333,0.109-0.664,0.219-0.992,0.327
		c-0.665,0.178-1.323,0.331-1.971,0.382c-1.292,0.135-2.49,0.03-3.483-0.154c-0.994-0.197-1.786-0.472-2.321-0.701
		c-0.534-0.236-0.817-0.408-0.817-0.408s0.328,0.049,0.897,0.079c0.567,0.036,1.373,0.073,2.318,0.024
		c0.944-0.035,2.032-0.159,3.141-0.424c0.553-0.145,1.113-0.304,1.665-0.513c0.269-0.116,0.54-0.233,0.812-0.352
		c0.246-0.14,0.499-0.263,0.749-0.391c0.261-0.148,0.541-0.347,0.813-0.51l0.205-0.128c-0.024,0.012,0.089-0.073,0.127-0.104
		l0.336-0.261c0.439-0.356,0.847-0.748,1.221-1.158c0.38-0.405,0.729-0.826,1.03-1.254c0.332-0.409,0.599-0.836,0.857-1.229
		c0.52-0.785,0.914-1.488,1.205-1.984C131.718,259.79,131.881,259.5,131.881,259.5z"/>
</g>
<path fill="#CCCCCC" d="M319.556,283.332c0,0,19.277,4.258,27.5,9.668c5.949,3.914,12.5,11.783,12.5,11.783s-4,14.115,2.5,23.684
	c7.406,10.903,19,13.817,41,13.768c48.006-0.108,68.5-7.113,68.5-31.674s-2-40.249-42-41.404c-40-1.156-63,2.403-66,10.623
	l-2.621,6.932C360.935,286.711,344.556,278.664,319.556,283.332z"/>
<g>
	<path fill="#FFFFFF" d="M379.859,313.764c2.953,0,4.431-1.68,4.431-5.041V298.25c0-0.213,0.067-0.396,0.202-0.551
		c0.133-0.154,0.294-0.23,0.481-0.23h1.673c0.187,0,0.346,0.076,0.476,0.23s0.195,0.338,0.195,0.551v10.449
		c0,2.506-0.732,4.463-2.197,5.871c-1.343,1.285-3.093,1.928-5.249,1.928c-2.165,0-3.927-0.666-5.285-2.002
		c-1.425-1.391-2.137-3.324-2.137-5.797V298.25c0-0.213,0.066-0.396,0.201-0.551s0.295-0.23,0.482-0.23h1.672
		c0.188,0,0.346,0.076,0.477,0.23c0.13,0.154,0.195,0.338,0.195,0.551v10.473c0,1.686,0.41,2.959,1.232,3.82
		C377.466,313.357,378.515,313.764,379.859,313.764z"/>
	<path fill="#FFFFFF" d="M391.833,295.307c0-0.219,0.062-0.402,0.189-0.549c0.126-0.146,0.278-0.219,0.457-0.219h1.673
		c0.187,0,0.342,0.072,0.464,0.219s0.184,0.33,0.184,0.549v9.242c0.699-1.189,1.729-1.949,3.088-2.283
		c0.432-0.105,0.979-0.158,1.642-0.158s1.284,0.145,1.862,0.432c0.577,0.289,1.037,0.686,1.379,1.191
		c0.61,0.92,0.916,2.273,0.916,4.064v7.58c0,0.244-0.074,0.439-0.221,0.586s-0.361,0.221-0.646,0.221h-1.196
		c-0.31,0-0.537-0.078-0.684-0.232s-0.22-0.346-0.22-0.574v-7.592c0-2.084-0.766-3.125-2.295-3.125c-0.854,0-1.66,0.373-2.417,1.123
		c-0.806,0.812-1.208,1.75-1.208,2.807v6.787c0,0.229-0.07,0.42-0.208,0.574c-0.139,0.154-0.362,0.232-0.671,0.232h-1.331
		c-0.236,0-0.421-0.078-0.556-0.232c-0.134-0.154-0.201-0.346-0.201-0.574V295.307z"/>
	<path fill="#FFFFFF" d="M408.96,309.803c-0.131-0.117-0.195-0.258-0.195-0.42v-1.16c0-0.164,0.064-0.301,0.195-0.416
		c0.129-0.113,0.288-0.17,0.476-0.17h7.422c0.187,0,0.348,0.059,0.482,0.176c0.134,0.119,0.201,0.26,0.201,0.422v1.16
		c0,0.162-0.067,0.301-0.201,0.414c-0.135,0.115-0.296,0.172-0.482,0.172h-7.422C409.249,309.98,409.089,309.922,408.96,309.803z"/>
	<path fill="#FFFFFF" d="M421.9,309.248c0-1.059,0.176-2.029,0.531-2.912c0.354-0.883,0.84-1.637,1.458-2.264
		c1.294-1.311,2.925-1.965,4.896-1.965c2.205,0,3.914,0.654,5.127,1.965c1.172,1.262,1.758,2.994,1.758,5.199
		c0,2.133-0.664,3.875-1.99,5.225c-1.294,1.326-2.926,1.99-4.895,1.99c-2.076,0-3.744-0.68-5.006-2.039
		C422.526,313.121,421.9,311.389,421.9,309.248z M425.824,306.141c-0.305,0.451-0.527,0.965-0.665,1.539
		c-0.139,0.572-0.208,1.154-0.208,1.744c0,0.592,0.08,1.156,0.238,1.697s0.396,1.023,0.715,1.447
		c0.699,0.928,1.676,1.391,2.93,1.391c1.277,0,2.246-0.455,2.904-1.367c0.586-0.797,0.879-1.883,0.879-3.258
		c0-2.061-0.676-3.48-2.025-4.262c-0.497-0.285-1.098-0.426-1.801-0.426c-0.704,0-1.299,0.135-1.783,0.408
		C426.524,305.328,426.128,305.689,425.824,306.141z"/>
	<path fill="#FFFFFF" d="M439.722,295.307c0-0.219,0.062-0.402,0.189-0.549c0.125-0.146,0.277-0.219,0.457-0.219h1.672
		c0.188,0,0.342,0.072,0.465,0.219c0.121,0.146,0.183,0.33,0.183,0.549v9.242c0.7-1.189,1.729-1.949,3.089-2.283
		c0.431-0.105,0.979-0.158,1.641-0.158c0.664,0,1.284,0.145,1.862,0.432c0.577,0.289,1.038,0.686,1.38,1.191
		c0.609,0.92,0.915,2.273,0.915,4.064v7.58c0,0.244-0.073,0.439-0.22,0.586s-0.362,0.221-0.646,0.221h-1.197
		c-0.309,0-0.537-0.078-0.684-0.232s-0.219-0.346-0.219-0.574v-7.592c0-2.084-0.766-3.125-2.295-3.125
		c-0.855,0-1.66,0.373-2.418,1.123c-0.805,0.812-1.208,1.75-1.208,2.807v6.787c0,0.229-0.069,0.42-0.208,0.574
		s-0.361,0.232-0.671,0.232h-1.331c-0.236,0-0.42-0.078-0.555-0.232s-0.201-0.346-0.201-0.574V295.307z"/>
	<path fill="#FFFFFF" d="M455.896,314.338c0-0.578,0.207-1.078,0.623-1.502c0.398-0.414,0.891-0.621,1.477-0.621
		c0.578,0,1.066,0.207,1.465,0.621c0.406,0.424,0.61,0.924,0.61,1.502c0,0.586-0.204,1.09-0.61,1.514
		c-0.407,0.424-0.896,0.635-1.465,0.635c-0.578,0-1.07-0.211-1.477-0.635C456.103,315.428,455.896,314.924,455.896,314.338z
		 M457.507,309.932c-0.188,0-0.346-0.076-0.477-0.227c-0.13-0.15-0.195-0.332-0.195-0.543l-0.622-11.621
		c0-0.211,0.067-0.393,0.202-0.543c0.133-0.15,0.294-0.227,0.481-0.227h2.075c0.203,0,0.368,0.076,0.494,0.227
		c0.127,0.15,0.186,0.332,0.178,0.543l-0.477,11.621c0,0.211-0.066,0.393-0.201,0.543s-0.295,0.227-0.482,0.227H457.507z"/>
</g>
</svg>
