<?xml version="1.0" encoding="UTF-8" standalone="no"?>
<!-- Created with Inkscape (http://www.inkscape.org/) -->

<svg
   xmlns:dc="http://purl.org/dc/elements/1.1/"
   xmlns:cc="http://creativecommons.org/ns#"
   xmlns:rdf="http://www.w3.org/1999/02/22-rdf-syntax-ns#"
   xmlns:svg="http://www.w3.org/2000/svg"
   xmlns="http://www.w3.org/2000/svg"
   xmlns:sodipodi="http://sodipodi.sourceforge.net/DTD/sodipodi-0.dtd"
   xmlns:inkscape="http://www.inkscape.org/namespaces/inkscape"
   width="56.444443mm"
   height="30.046329mm"
   viewBox="0 0 199.99999 106.46337"
   id="svg2"
   version="1.1"
   inkscape:version="0.91 r13725"
   sodipodi:docname="frontpage-marketing.svg"
   inkscape:export-filename="/home/alex/build/newtodo/static/mainpage-title.png"
   inkscape:export-xdpi="432"
   inkscape:export-ydpi="432">
  <defs
     id="defs4" />
  <sodipodi:namedview
     id="base"
     pagecolor="#ffffff"
     bordercolor="#666666"
     borderopacity="1.0"
     inkscape:pageopacity="0.0"
     inkscape:pageshadow="2"
     inkscape:zoom="11.313708"
     inkscape:cx="75.642472"
     inkscape:cy="71.057215"
     inkscape:document-units="px"
     inkscape:current-layer="layer1"
     showgrid="false"
     fit-margin-top="0"
     fit-margin-left="0"
     fit-margin-right="0"
     fit-margin-bottom="0"
     inkscape:window-width="3172"
     inkscape:window-height="1740"
     inkscape:window-x="14"
     inkscape:window-y="46"
     inkscape:window-maximized="0" />
  <metadata
     id="metadata7">
    <rdf:RDF>
      <cc:Work
         rdf:about="">
        <dc:format>image/svg+xml</dc:format>
        <dc:type
           rdf:resource="http://purl.org/dc/dcmitype/StillImage" />
        <dc:title></dc:title>
      </cc:Work>
    </rdf:RDF>
  </metadata>
  <g
     inkscape:label="Layer 1"
     inkscape:groupmode="layer"
     id="layer1"
     style="display:inline"
     transform="translate(-152.65259,-53.576172)">
    <g
       style="fill:#157efb;fill-rule:evenodd;stroke:none;stroke-width:1"
       id="icon-40-clipboard-list"
       transform="matrix(1.2928572,0,0,1.2928572,229.30436,52.283632)">
      <path
         style="fill:#333333;fill-opacity:1"
         d="m 248.64844,53.576172 c -2.14797,0 -3.88947,1.73034 -3.89063,3.878906 l -1.28906,0 c -1.42793,0 -2.58645,1.152524 -2.58984,2.585938 l -1.29688,0 c -1.42621,0 -2.58203,1.149818 -2.58203,2.589843 l 0,27.140625 c 0,1.430618 1.15149,2.589844 2.58203,2.589844 l 19.40039,0 c 1.42621,0 2.58203,-1.149818 2.58203,-2.589844 l 0,-27.140625 c 0,-1.430617 -1.15149,-2.589843 -2.58203,-2.589843 l -1.29687,0 c -0.003,-1.428635 -1.1579,-2.585938 -2.58985,-2.585938 l -1.28906,0 c -10e-4,-2.142275 -1.74574,-3.878906 -3.89062,-3.878906 l -1.26758,0 z m -0.006,1.292969 1.2793,0 c 1.43633,0 2.59179,1.157424 2.59179,2.583984 l 0,1.294922 2.5918,0 c 0.71203,0 1.28711,0.577735 1.28711,1.291015 l 0,1.296876 c 0,0.719211 -0.57624,1.291015 -1.28711,1.291015 l -11.64649,0 c -0.71202,0 -1.28711,-0.577735 -1.2871,-1.291015 l 0,-1.296876 c 0,-0.719211 0.57624,-1.291015 1.2871,-1.291015 l 2.5918,0 0,-1.294922 c 0,-1.421694 1.16026,-2.583984 2.5918,-2.583984 z m -9.05664,6.464843 1.29297,0 c 0.003,1.428635 1.15789,2.585938 2.58984,2.585938 l 11.62695,0 c 1.42793,0 2.58646,-1.152524 2.58985,-2.585938 l 1.29297,0 c 0.70493,0 1.29296,0.580658 1.29296,1.296875 l 0,27.142579 c 0,0.729369 -0.57897,1.296875 -1.29296,1.296874 l -19.39258,0 c -0.70493,0 -1.29297,-0.580656 -1.29297,-1.296874 l 0,-27.142579 c 0,-0.729369 0.57897,-1.296875 1.29297,-1.296875 z"
         transform="matrix(0.77348063,0,0,0.77348063,-178.31491,-40.440377)"
         id="path4775"
         inkscape:connector-curvature="0" />
      <path
         style="fill:#333333;fill-opacity:1"
         d="M 14.5,5 C 14.776142,5 15,4.7761424 15,4.5 15,4.2238576 14.776142,4 14.5,4 14.223858,4 14,4.2238576 14,4.5 14,4.7761424 14.223858,5 14.5,5 l 0,0 z"
         id="path4771"
         inkscape:connector-curvature="0" />
      <path
         style="fill:#333333;fill-opacity:1"
         d="m 13,14 0,1 8,0 0,-1 -8,0 0,0 z"
         id="path4769"
         inkscape:connector-curvature="0" />
      <path
         style="fill:#fbb03b;fill-opacity:1"
         d="m 240.87891,69.089844 0,3.878906 3.8789,0 0,-3.878906 -3.8789,0 z m 1.29297,1.292968 1.29296,0 0,1.292969 -1.29296,0 0,-1.292969 z"
         transform="matrix(0.77348063,0,0,0.77348063,-178.31491,-40.440377)"
         id="path4767"
         inkscape:connector-curvature="0" />
      <path
         style="fill:#fbb03b;fill-opacity:1"
         d="m 240.87891,75.554688 0,3.878906 3.8789,0 0,-3.878906 -3.8789,0 z m 1.29297,1.292968 1.29296,0 0,1.292969 -1.29296,0 0,-1.292969 z"
         transform="matrix(0.77348063,0,0,0.77348063,-178.31491,-40.440377)"
         id="path4763"
         inkscape:connector-curvature="0" />
      <path
         style="fill:#333333;fill-opacity:1"
         d="m 13,19 0,1 8,0 0,-1 -8,0 0,0 z"
         id="path4759"
         inkscape:connector-curvature="0" />
      <path
         style="fill:#fbb03b;fill-opacity:1"
         d="m 240.87891,82.019531 0,3.878907 3.8789,0 0,-3.878907 -3.8789,0 z m 1.29297,1.292969 1.29296,0 0,1.292969 -1.29296,0 0,-1.292969 z"
         transform="matrix(0.77348063,0,0,0.77348063,-178.31491,-40.440377)"
         id="path4757"
         inkscape:connector-curvature="0" />
      <path
         style="fill:#333333;fill-opacity:1"
         d="m 13,24 0,1 8,0 0,-1 -8,0 0,0 z"
         id="clipboard-list"
         inkscape:connector-curvature="0" />
    </g>
    <g
       id="calendar_1_"
       transform="matrix(1.1674107,0,0,1.1674107,168.76865,55.005062)">
      <path
         style="fill:#333332;stroke:none;stroke-width:0.85659659;stroke-miterlimit:4;stroke-dasharray:none;stroke-opacity:1"
         d="M 25.455078 1.9296875 C 25.080598 1.9296875 24.789062 2.2201671 24.789062 2.5957031 L 24.789062 5.4316406 L 19.230469 5.4316406 C 17.780839 5.4316406 16.617188 6.5935698 16.617188 8.0429688 L 16.617188 35.673828 C 16.617188 37.123227 17.781069 38.287109 19.230469 38.287109 L 50.361328 38.287109 C 51.810718 38.287109 52.972656 37.123454 52.972656 35.673828 L 52.972656 8.0429688 C 52.972656 6.5933428 51.810948 5.4316406 50.361328 5.4316406 L 44.800781 5.4316406 L 44.800781 2.5957031 C 44.800781 2.2195631 44.510906 1.9296875 44.134766 1.9296875 C 43.758626 1.9296875 43.466797 2.2195631 43.466797 2.5957031 L 43.466797 5.4316406 L 35.462891 5.4316406 L 35.462891 2.5957031 C 35.462891 2.2201671 35.169402 1.9296875 34.794922 1.9296875 C 34.420432 1.9296875 34.126953 2.2201671 34.126953 2.5957031 L 34.126953 5.4316406 L 26.123047 5.4316406 L 26.123047 2.5957031 C 26.123047 2.2201671 25.829558 1.9296875 25.455078 1.9296875 z M 19.230469 6.765625 L 24.789062 6.765625 L 24.789062 9.6015625 C 24.789062 9.9770985 25.080598 10.267578 25.455078 10.267578 C 25.829558 10.267578 26.123047 9.9770985 26.123047 9.6015625 L 26.123047 6.765625 L 34.126953 6.765625 L 34.126953 9.6015625 C 34.126953 9.9770985 34.420432 10.267578 34.794922 10.267578 C 35.169402 10.267578 35.462891 9.9770985 35.462891 9.6015625 L 35.462891 6.765625 L 43.466797 6.765625 L 43.466797 9.6015625 C 43.466797 9.9777025 43.758626 10.267578 44.134766 10.267578 C 44.510906 10.267578 44.800781 9.9777025 44.800781 9.6015625 L 44.800781 6.765625 L 50.361328 6.765625 C 51.061338 6.765625 51.638672 7.3429618 51.638672 8.0429688 L 51.638672 35.673828 C 51.638672 36.374264 51.061338 36.951172 50.361328 36.951172 L 19.230469 36.951172 C 18.530029 36.951172 17.951172 36.374272 17.951172 35.673828 L 17.951172 8.0429688 C 17.951172 7.3429537 18.530029 6.765625 19.230469 6.765625 z "
         transform="matrix(0.85659657,0,0,0.85659657,-13.804968,-1.2239823)"
         id="path4401" />
      <rect
         id="rect4403"
         y="12"
         x="7"
         width="4"
         height="3"
         style="fill:#ff5d76;fill-opacity:1" />
      <rect
         id="rect4405"
         y="17"
         x="7"
         width="4"
         height="3"
         style="fill:#ff5d76;fill-opacity:1" />
      <rect
         id="rect4407"
         y="22"
         x="7"
         width="4"
         height="3"
         style="fill:#ff5d76;fill-opacity:1" />
      <rect
         id="rect4409"
         y="22"
         x="14"
         width="4"
         height="3"
         style="fill:#ff5d76;fill-opacity:1" />
      <rect
         id="rect4411"
         y="17"
         x="14"
         width="4"
         height="3"
         style="fill:#ff5d76;fill-opacity:1" />
      <rect
         id="rect4413"
         y="12"
         x="14"
         width="4"
         height="3"
         style="fill:#ff5d76;fill-opacity:1" />
      <rect
         id="rect4415"
         y="22"
         x="21"
         width="4"
         height="3"
         style="fill:#ff5d76;fill-opacity:1" />
      <rect
         id="rect4417"
         y="17"
         x="21"
         width="4"
         height="3"
         style="fill:#ff5d76;fill-opacity:1" />
      <rect
         id="rect4419"
         y="12"
         x="21"
         width="4"
         height="3"
         style="fill:#ff5d76;fill-opacity:1" />
    </g>
    <g
       id="g4715"
       transform="matrix(0.64795796,0,0,0.64795796,151.60743,98.309234)">
      <g
         id="g4687">
        <path
           id="path4689"
           d="m 30.031,36.805 c 0,1.415 -0.796,2.122 -2.387,2.122 l -9.245,0 0,32.168 c 0,0.809 -0.228,1.459 -0.682,1.952 -0.454,0.493 -1.086,0.739 -1.895,0.739 l -3.713,0 c -0.884,0 -1.566,-0.246 -2.046,-0.739 -0.48,-0.493 -0.72,-1.143 -0.72,-1.952 l 0,-32.169 -5.343,0 c -1.591,0 -2.387,-0.72 -2.387,-2.16 l 0,-2.122 c 0,-0.581 0.157,-1.016 0.473,-1.307 0.316,-0.29 0.903,-0.562 1.762,-0.814 l 5.646,-0.91 C 8.206,28.229 7.454,25.721 7.24,24.092 7.025,22.463 6.918,20.909 6.918,19.431 6.918,17.953 7.246,16.407 7.903,14.79 8.56,13.174 9.519,11.746 10.782,10.508 13.611,7.73 17.375,6.34 22.074,6.34 c 3.713,0 6.908,0.796 9.586,2.387 1.49,0.909 2.236,1.724 2.236,2.444 0,0.72 -0.228,1.396 -0.682,2.027 l -1.819,2.577 c -0.505,0.682 -0.979,1.023 -1.421,1.023 -0.442,0 -0.865,-0.126 -1.269,-0.379 -0.404,-0.252 -0.885,-0.53 -1.44,-0.833 -1.491,-0.808 -3.208,-1.212 -5.153,-1.212 -4.269,0 -6.403,2.69 -6.403,8.071 0,2.602 0.581,5.469 1.743,8.601 l 10.192,0 c 1.591,0 2.387,0.695 2.387,2.084 l 0,3.675 z"
           inkscape:connector-curvature="0"
           style="fill:#ff5d76" />
        <path
           id="path4691"
           d="m 38.002,33.773 c 0,-1.819 0.796,-2.729 2.387,-2.729 l 2.046,0 c 1.389,0 2.374,0.606 2.956,1.819 0.833,1.769 1.44,4.206 1.819,7.313 0,0.051 0.019,0.076 0.057,0.076 0.038,0 0.12,-0.429 0.247,-1.288 0.126,-0.858 0.492,-1.914 1.099,-3.164 0.606,-1.25 1.351,-2.305 2.235,-3.164 1.793,-1.692 3.991,-2.539 6.593,-2.539 2.905,0 4.926,0.48 6.062,1.439 0.531,0.43 0.745,1.023 0.644,1.781 l -0.606,4.774 c -0.152,1.288 -0.809,1.932 -1.97,1.932 -0.556,0 -1.238,-0.113 -2.046,-0.341 -1.566,-0.404 -2.804,-0.606 -3.713,-0.606 -0.91,0 -1.87,0.398 -2.88,1.194 -1.011,0.795 -1.882,1.787 -2.614,2.974 -1.491,2.476 -2.235,5.115 -2.235,7.919 l 0,20.12 c 0,0.708 -0.203,1.302 -0.606,1.781 -0.404,0.48 -0.985,0.72 -1.743,0.72 l -4.395,0 c -0.809,0 -1.421,-0.24 -1.838,-0.72 -0.417,-0.479 -0.625,-1.074 -0.625,-1.781 l 0,-26.105 c 0,-4.446 -0.146,-7.382 -0.436,-8.81 -0.293,-1.426 -0.438,-2.292 -0.438,-2.595 z"
           inkscape:connector-curvature="0"
           style="fill:#ff6d70" />
        <path
           id="path4693"
           d="m 109.577,71.208 c 0,1.718 -0.783,2.577 -2.35,2.577 l -1.705,0 c -1.516,0 -2.514,-0.606 -2.994,-1.819 -0.53,-1.389 -1.099,-3.321 -1.705,-5.797 -1.061,2.652 -2.86,4.743 -5.399,6.271 -2.539,1.528 -5.702,2.292 -9.491,2.292 -4.951,0 -8.601,-1.547 -10.95,-4.642 -2.349,-3.094 -3.524,-7.66 -3.524,-13.697 l 0,-22.847 c 0,-0.707 0.221,-1.301 0.663,-1.781 0.442,-0.479 1.067,-0.72 1.875,-0.72 l 4.168,0 c 1.667,0 2.501,0.834 2.501,2.501 l 0,22.431 c 0,6.037 1.402,9.523 4.206,10.458 0.91,0.303 1.989,0.455 3.24,0.455 1.251,0 2.539,-0.29 3.865,-0.872 1.326,-0.581 2.52,-1.351 3.581,-2.311 2.374,-2.198 3.562,-4.711 3.562,-7.54 l 0,-22.621 c 0,-0.707 0.214,-1.301 0.645,-1.781 0.429,-0.479 1.111,-0.72 2.046,-0.72 l 3.979,0 c 0.884,0 1.528,0.241 1.932,0.72 0.404,0.48 0.606,1.074 0.606,1.781 l 0,23.681 c 0,5.33 0.379,9.624 1.137,12.883 0.074,0.278 0.112,0.644 0.112,1.098 z"
           inkscape:connector-curvature="0"
           style="fill:#fb8675" />
        <path
           id="path4695"
           d="m 125.574,23.732 c -1.718,0 -3.183,-0.593 -4.395,-1.781 -1.212,-1.162 -1.819,-2.627 -1.819,-4.396 0,-1.717 0.606,-3.183 1.819,-4.395 1.162,-1.162 2.627,-1.743 4.395,-1.743 2.703,0 4.597,1.238 5.684,3.713 0.328,0.733 0.493,1.541 0.493,2.425 0,1.769 -0.606,3.234 -1.819,4.396 -1.213,1.188 -2.665,1.781 -4.358,1.781 z"
           inkscape:connector-curvature="0"
           style="fill:#ff5d76" />
        <path
           id="path4697"
           d="m 130.007,63.365 c 0,1.794 0.593,2.69 1.781,2.69 0.404,0 0.859,-0.114 1.364,-0.341 0.985,-0.429 1.654,-0.644 2.008,-0.644 0.53,0 0.959,0.367 1.288,1.099 l 1.175,2.652 c 0.202,0.43 0.303,0.833 0.303,1.212 0,1.086 -0.935,2.097 -2.804,3.031 -1.769,0.909 -3.518,1.364 -5.248,1.364 -1.73,0 -3.114,-0.189 -4.149,-0.568 -1.036,-0.379 -1.92,-1.01 -2.652,-1.895 -1.465,-1.818 -2.198,-4.774 -2.198,-8.866 l 0,-29.553 c 0,-0.707 0.202,-1.301 0.606,-1.781 0.403,-0.479 0.884,-0.72 1.439,-0.72 l 5.08,0 c 0.581,0 1.061,0.241 1.439,0.72 0.379,0.48 0.568,1.074 0.568,1.781 l 0,29.819 z"
           inkscape:connector-curvature="0"
           style="fill:#fb9e67" />
        <path
           id="path4699"
           d="m 169.981,36.805 c 0,1.415 -0.795,2.122 -2.387,2.122 l -10.685,0 0,23.795 c 0,2.577 1.275,3.865 3.827,3.865 1.616,0 3.726,-0.808 6.328,-2.425 0.505,-0.328 1.054,-0.493 1.648,-0.493 0.593,0 1.066,0.417 1.42,1.25 l 0.872,1.97 c 0.328,0.758 0.493,1.402 0.493,1.933 0,0.53 -0.398,1.143 -1.193,1.837 -0.796,0.695 -1.813,1.32 -3.05,1.875 -2.804,1.263 -5.342,1.895 -7.616,1.895 -2.274,0 -4.073,-0.234 -5.399,-0.701 -1.326,-0.467 -2.457,-1.168 -3.391,-2.103 -2.021,-1.97 -3.031,-4.812 -3.031,-8.525 l 0,-24.174 -3.183,0 c -1.591,0 -2.387,-0.72 -2.387,-2.16 l 0,-2.16 c 0,-0.581 0.151,-1.036 0.455,-1.364 0.303,-0.328 0.896,-0.581 1.781,-0.758 l 3.789,-1.099 1.44,-8.904 c 0.277,-1.667 0.959,-2.5 2.046,-2.5 l 3.145,0 c 0.581,0 1.061,0.234 1.44,0.701 0.378,0.468 0.568,1.067 0.568,1.8 l 0,8.563 10.685,0 c 1.592,0 2.387,0.695 2.387,2.084 l 0,3.676 z"
           inkscape:connector-curvature="0"
           style="fill:#fbb03b" />
        <path
           id="path4701"
           d="m 211.736,31.045 c 1.616,0 2.425,0.796 2.425,2.387 0,1.844 -0.96,5.924 -2.88,12.239 l -2.349,7.237 C 203.4,68.771 196.542,81.83 188.358,92.086 l -0.758,0.947 c -1.162,1.49 -2.349,2.236 -3.562,2.236 -1.289,0 -2.779,-0.897 -4.471,-2.69 -0.48,-0.505 -0.72,-1.086 -0.72,-1.743 0,-1.061 0.568,-2.178 1.705,-3.353 1.137,-1.175 2.185,-2.349 3.145,-3.524 0.96,-1.174 1.869,-2.355 2.728,-3.542 1.566,-2.147 2.98,-4.408 4.244,-6.782 -3.94,-10.634 -6.328,-17 -7.161,-19.097 l -4.13,-10.269 -2.917,-6.63 c -1.086,-2.526 -1.629,-4.06 -1.629,-4.604 0,-0.542 0.233,-1.01 0.701,-1.402 0.467,-0.391 1.13,-0.587 1.989,-0.587 l 4.774,0 c 1.111,0 1.97,0.632 2.577,1.895 0.455,0.935 1.073,2.476 1.856,4.623 1.591,4.648 2.753,8.096 3.486,10.344 l 3.069,10.041 c 0.303,1.01 0.53,1.818 0.682,2.425 l 0.341,1.364 c 0.076,0.303 0.164,0.682 0.265,1.137 l 0.341,1.439 c 0.126,0.506 0.265,0.758 0.417,0.758 0.152,0 0.322,-0.151 0.512,-0.455 0.19,-0.304 0.385,-0.694 0.587,-1.174 l 0.645,-1.592 c 2.626,-6.744 5.115,-16.191 7.464,-28.342 0.303,-1.642 1.25,-2.463 2.842,-2.463 l 4.356,0 z"
           inkscape:connector-curvature="0"
           style="fill:#e6c531" />
        <path
           id="path4703"
           d="m 249.582,36.388 0,-27.395 c 0,-0.657 0.195,-1.218 0.587,-1.686 0.392,-0.467 0.877,-0.701 1.459,-0.701 l 5.267,0 c 0.581,0 1.061,0.234 1.44,0.701 0.379,0.468 0.568,1.029 0.568,1.686 l 0,48.575 c 0,5.103 0.404,9.334 1.212,12.693 0.076,0.354 0.114,0.802 0.114,1.345 0,0.543 -0.234,1.042 -0.701,1.497 -0.468,0.455 -1.067,0.682 -1.8,0.682 l -1.856,0 c -1.491,0 -2.488,-0.606 -2.993,-1.819 -0.657,-1.541 -1.2,-3.574 -1.629,-6.1 -1.945,4.118 -5.216,6.858 -9.813,8.222 -1.516,0.429 -3.404,0.644 -5.665,0.644 -2.261,0 -4.509,-0.582 -6.745,-1.743 -2.235,-1.161 -4.136,-2.74 -5.702,-4.736 -3.208,-4.143 -4.812,-9.296 -4.812,-15.459 0,-6.365 1.554,-11.645 4.661,-15.838 3.359,-4.572 7.843,-6.858 13.451,-6.858 5.606,0 9.926,2.097 12.957,6.29 z m -21.37,16.671 c 0,1.718 0.208,3.398 0.625,5.04 0.417,1.643 1.055,3.107 1.914,4.396 1.919,2.93 4.572,4.395 7.957,4.395 3.082,0 5.784,-1.338 8.108,-4.016 2.475,-2.779 3.713,-6.062 3.713,-9.852 0,-4.597 -1.2,-8.285 -3.599,-11.064 -2.299,-2.652 -5.128,-3.979 -8.488,-3.979 -3.511,0 -6.176,1.655 -7.995,4.964 -1.49,2.779 -2.235,6.151 -2.235,10.116 z"
           inkscape:connector-curvature="0"
           style="fill:#c6cc31" />
        <path
           id="path4705"
           d="m 304.819,36.198 c -3.764,-4.067 -9.069,-6.1 -15.914,-6.1 -6.113,0 -11.178,2.033 -15.194,6.1 -1.92,1.945 -3.429,4.288 -4.528,7.029 -1.099,2.741 -1.648,5.753 -1.648,9.037 0,6.644 1.945,12.024 5.835,16.141 3.915,4.219 9.094,6.328 15.535,6.328 6.112,0 11.177,-2.059 15.194,-6.176 4.117,-4.192 6.176,-9.599 6.176,-16.217 0,-6.846 -1.818,-12.226 -5.456,-16.142 z m -6.744,26.448 c -2.046,2.829 -5.053,4.244 -9.018,4.244 -3.89,0 -6.921,-1.44 -9.094,-4.319 -0.985,-1.313 -1.724,-2.81 -2.216,-4.49 -0.493,-1.68 -0.739,-3.435 -0.739,-5.267 0,-1.831 0.214,-3.637 0.644,-5.418 0.429,-1.781 1.118,-3.372 2.065,-4.774 0.947,-1.402 2.172,-2.526 3.675,-3.372 1.502,-0.846 3.347,-1.27 5.532,-1.27 2.185,0 4.048,0.442 5.589,1.326 4.193,2.425 6.29,6.833 6.29,13.224 0,4.268 -0.91,7.64 -2.728,10.116 z"
           inkscape:connector-curvature="0"
           style="fill:#aad23f" />
      </g>
      <path
         id="path4707"
         d="m 130.119,13.083 c 0,0 -0.911,-5.68 2.654,-8.904 3.565,-3.225 7.205,-1.407 12.2,-1.812 4.995,-0.405 6.739,-2.277 6.739,-2.277 0,0 1.018,6.854 -2.846,10.209 -5.109,4.437 -18.747,2.784 -18.747,2.784 z"
         inkscape:connector-curvature="0"
         style="fill:#aad23f" />
    </g>
    <path
       inkscape:connector-curvature="0"
       style="fill:#333333;fill-opacity:1;fill-rule:evenodd;stroke:none;stroke-width:1"
       d="m 292.70043,60.362205 c -1.30743,0 -2.36719,1.066498 -2.36719,2.38086 l 0,1.175781 -1.18359,0 0,1.185547 1.18359,0 0,3.554687 -1.18359,0 0,1.185547 1.18359,0 0,3.554688 -1.18359,0 0,1.185546 1.18359,0 0,3.556641 -1.18359,0 0,1.183594 1.18359,0 0,3.55664 -1.18359,0 0,1.185547 1.18359,0 0,3.554688 -1.18359,0 0,1.185547 1.18359,0 0,1.175781 c 0,1.313918 1.05579,2.378906 2.36719,2.378906 l 17.78516,0 c 1.30743,0 2.36718,-1.064545 2.36718,-2.378906 l 0,-27.240234 c 0,-1.313919 -1.05578,-2.38086 -2.36718,-2.38086 l -17.78516,0 z m 0.004,1.185547 8.29687,0 0,14.222656 3.55469,-3.554687 3.55664,3.554687 0,-14.222656 2.36914,0 c 0.64622,0 1.18555,0.528101 1.18555,1.179687 l 0,27.271485 c 0,0.64023 -0.53102,1.179687 -1.18555,1.179687 l -17.77734,0 c -0.64623,0 -1.18555,-0.528101 -1.18555,-1.179687 l 0,-1.191406 1.18555,0 0,-1.185547 -1.18555,0 0,-3.554688 1.18555,0 0,-1.185547 -1.18555,0 0,-3.55664 1.18555,0 0,-1.183594 -1.18555,0 0,-3.556641 1.18555,0 0,-1.185546 -1.18555,0 0,-3.554688 1.18555,0 0,-1.185547 -1.18555,0 0,-3.554687 1.18555,0 0,-1.185547 -1.18555,0 0,-1.191407 c 0,-0.64023 0.53101,-1.179687 1.18555,-1.179687 z m 9.48242,0 4.74023,0 0,11.378906 -2.37109,-2.371093 -2.36914,2.371093 0,-11.378906 z"
       id="path4742-4" />
  </g>
  <g
     style="fill:#c49292;fill-opacity:1;fill-rule:evenodd;stroke:none;stroke-width:1"
     id="icon-50-notebook"
     transform="matrix(1.1851852,0,0,1.1851852,129.38495,3.2304775)">
    <path
       style="fill:#aad23f;fill-opacity:1"
       d="m 299.59375,61.544922 0,0.002 2.63867,0 0,14.222656 3.55469,-3.554687 3.55664,3.554687 0,-14.222656 1.625,0 0,-0.002 -11.375,0 z m 3.82422,0.002 4.74023,0 0,11.378906 -2.37109,-2.371093 -2.36914,2.371093 0,-11.378906 z"
       id="path4742"
       transform="matrix(0.84374999,0,0,0.84374999,-239.00812,-47.930609)"
       inkscape:connector-curvature="0" />
  </g>
  <g
     inkscape:groupmode="layer"
     id="layer2"
     inkscape:label="Layer 2"
     style="display:inline;opacity:1"
     transform="translate(-152.65259,-53.576172)">
    <g
       transform="translate(-4.0021077,-21.949646)"
       style="font-style:normal;font-weight:normal;font-size:40px;line-height:125%;font-family:sans-serif;letter-spacing:0px;word-spacing:0px;fill:#333333;fill-opacity:1;stroke:none;stroke-width:2.29999995;stroke-linecap:butt;stroke-linejoin:miter;stroke-miterlimit:4;stroke-dasharray:none;stroke-opacity:1"
       id="flowRoot4439">
      <path
         style="stroke:none;stroke-width:2.29999995;stroke-miterlimit:4;stroke-dasharray:none;stroke-opacity:1"
         d="M 67.230469 14.759766 L 67.230469 23.060547 L 59.300781 23.060547 L 59.300781 24.179688 L 67.230469 24.179688 L 67.230469 33.164062 L 68.5625 33.164062 L 68.5625 24.179688 L 76.492188 24.179688 L 76.492188 23.060547 L 69.712891 23.060547 L 68.5625 23.060547 L 68.5625 14.759766 L 67.230469 14.759766 z "
         transform="translate(156.65469,75.525818)"
         id="path4874" />
    </g>
    <g
       transform="translate(-4.0021077,-21.949646)"
       style="font-style:normal;font-weight:normal;font-size:40px;line-height:125%;font-family:sans-serif;letter-spacing:0px;word-spacing:0px;display:inline;opacity:1;fill:#333333;fill-opacity:1;stroke:#ffffff;stroke-width:2.29999995;stroke-linecap:butt;stroke-linejoin:miter;stroke-miterlimit:4;stroke-dasharray:none;stroke-opacity:1"
       id="flowRoot4439-6" />
    <g
       transform="translate(50.697111,-21.949336)"
       style="font-style:normal;font-weight:normal;font-size:40px;line-height:125%;font-family:sans-serif;letter-spacing:0px;word-spacing:0px;display:inline;opacity:1;fill:#333333;fill-opacity:1;stroke:none;stroke-width:2.29999995;stroke-linecap:butt;stroke-linejoin:miter;stroke-miterlimit:4;stroke-dasharray:none;stroke-opacity:1"
       id="flowRoot4439-1">
      <path
         inkscape:connector-curvature="0"
         style="stroke:none;stroke-width:2.29999995;stroke-miterlimit:4;stroke-dasharray:none;stroke-opacity:1"
         d="m 67.230469,14.759766 0,8.300781 -7.929688,0 0,1.119141 7.929688,0 0,8.984374 1.332031,0 0,-8.984374 7.929688,0 0,-1.119141 -6.779297,0 -1.150391,0 0,-8.300781 -1.332031,0 z"
         transform="translate(156.65469,75.525818)"
         id="path4874-2" />
    </g>
  </g>
  <g
     inkscape:groupmode="layer"
     id="layer3"
     inkscape:label="Layer 3"
     style="display:inline;opacity:1"
     transform="translate(-152.65259,-53.576172)" />
  <g
     inkscape:groupmode="layer"
     id="layer4"
     inkscape:label="Layer 4"
     style="opacity:1"
     transform="translate(-152.65259,-53.576172)">
    <g
       transform="translate(-9.1978668,10.684267)"
       style="font-style:normal;font-weight:normal;font-size:40px;line-height:125%;font-family:sans-serif;letter-spacing:0px;word-spacing:0px;display:inline;opacity:1;fill:#000000;fill-opacity:1;stroke:#ffffff;stroke-width:2;stroke-linecap:butt;stroke-linejoin:miter;stroke-miterlimit:4;stroke-dasharray:none;stroke-opacity:1"
       id="flowRoot4841">
      <path
         style="stroke:none;stroke-opacity:1"
         d="M 168.0957 18.080078 L 168.0957 19.224609 L 182.38477 19.224609 L 182.38477 18.080078 L 168.0957 18.080078 z M 168.0957 26.205078 L 168.0957 27.330078 L 182.38477 27.330078 L 182.38477 26.205078 L 168.0957 26.205078 z "
         transform="translate(161.85045,42.891905)"
         id="path4978" />
    </g>
    <g
       transform="translate(-9.1977276,10.684539)"
       style="font-style:normal;font-weight:normal;font-size:40px;line-height:125%;font-family:sans-serif;letter-spacing:0px;word-spacing:0px;display:inline;opacity:1;fill:#000000;fill-opacity:1;stroke:#ffffff;stroke-width:2;stroke-linecap:butt;stroke-linejoin:miter;stroke-miterlimit:4;stroke-dasharray:none;stroke-opacity:1"
       id="flowRoot4841-7" />
  </g>
</svg>
