<?xml version="1.0" encoding="UTF-8" standalone="no"?>
<svg
   xmlns:dc="http://purl.org/dc/elements/1.1/"
   xmlns:cc="http://creativecommons.org/ns#"
   xmlns:rdf="http://www.w3.org/1999/02/22-rdf-syntax-ns#"
   xmlns:svg="http://www.w3.org/2000/svg"
   xmlns="http://www.w3.org/2000/svg"
   xmlns:sodipodi="http://sodipodi.sourceforge.net/DTD/sodipodi-0.dtd"
   xmlns:inkscape="http://www.inkscape.org/namespaces/inkscape"
   enable-background="new 0 0 100 100"
   height="86"
   id="Layer_1"
   version="1.1"
   viewBox="0 0 86 86"
   width="86"
   xml:space="preserve"
   inkscape:version="0.91 r13725"
   sodipodi:docname="saveicon-scalable.svg"
   inkscape:export-filename="/home/alex/build/newtodo/static/saveicon.png"
   inkscape:export-xdpi="33.488373"
   inkscape:export-ydpi="33.488373"><metadata
     id="metadata6527"><rdf:RDF><cc:Work
         rdf:about=""><dc:format>image/svg+xml</dc:format><dc:type
           rdf:resource="http://purl.org/dc/dcmitype/StillImage" /><dc:title></dc:title></cc:Work></rdf:RDF></metadata><defs
     id="defs6525" /><sodipodi:namedview
     pagecolor="#ffffff"
     bordercolor="#666666"
     borderopacity="1"
     objecttolerance="10"
     gridtolerance="10"
     guidetolerance="10"
     inkscape:pageopacity="0"
     inkscape:pageshadow="2"
     inkscape:window-width="1579"
     inkscape:window-height="1740"
     id="namedview6523"
     showgrid="false"
     fit-margin-top="0"
     fit-margin-left="0"
     fit-margin-right="0"
     fit-margin-bottom="0"
     inkscape:zoom="6.675088"
     inkscape:cx="31.614436"
     inkscape:cy="15.12359"
     inkscape:window-x="1607"
     inkscape:window-y="46"
     inkscape:window-maximized="0"
     inkscape:current-layer="Layer_1" /><g
     id="g6511"
     transform="translate(-7,-7)"><path
       d="M 83.996,7 80.611,7 41.96,7 12.201,7 C 9.333,7 7,9.333 7,12.201 l 0,75.6 C 7,90.667 9.333,93 12.201,93 l 3.199,0 69.061,0 3.34,0 C 90.668,93 93,90.667 93,87.801 L 93,16.005 83.996,7 Z m -5.385,2 0,15.802 c 0,1.764 -1.436,3.198 -3.199,3.198 l -29.25,0 C 44.396,28 42.96,26.565 42.96,24.802 L 42.96,9 78.611,9 Z M 17.4,91 l 0,-45.251 c 0,-1.764 1.437,-3.199 3.201,-3.199 l 58.66,0 c 1.764,0 3.199,1.435 3.199,3.199 L 82.46,91 17.4,91 Z M 91,87.801 C 91,89.565 89.564,91 87.801,91 l -3.34,0 0,-45.251 c 0,-2.867 -2.332,-5.199 -5.199,-5.199 l -58.66,0 c -2.868,0 -5.201,2.333 -5.201,5.199 l 0,45.251 -3.199,0 C 10.437,91 9,89.565 9,87.801 l 0,-75.6 C 9,10.436 10.437,9 12.201,9 l 28.759,0 0,15.802 c 0,2.866 2.334,5.198 5.202,5.198 l 29.25,0 c 2.867,0 5.199,-2.332 5.199,-5.198 L 80.611,9 83.168,9 91,16.833 91,87.801 Z"
       id="path6513"
       style="fill:#ff5d76;fill-opacity:1"
       inkscape:connector-curvature="0" /><rect
       height="12.473"
       width="4.2090001"
       x="71.351997"
       y="12.201"
       id="rect6515"
       style="fill:#ff5d76;fill-opacity:1" /><rect
       height="2"
       width="47.25"
       x="26.375"
       y="54.25"
       id="rect6517"
       style="fill:#ff5d76;fill-opacity:1" /><rect
       height="2"
       width="47.25"
       x="26.375"
       y="63.875"
       id="rect6519"
       style="fill:#ff5d76;fill-opacity:1" /><rect
       height="2"
       width="47.25"
       x="26.375"
       y="72.625"
       id="rect6521"
       style="fill:#ff5d76;fill-opacity:1" /></g></svg>