<?xml version="1.0" encoding="utf-8"?>
<!-- Generator: Adobe Illustrator 16.0.4, SVG Export Plug-In . SVG Version: 6.00 Build 0)  -->
<!DOCTYPE svg PUBLIC "-//W3C//DTD SVG 1.1//EN" "http://www.w3.org/Graphics/SVG/1.1/DTD/svg11.dtd">
<svg version="1.1" id="Layer_1" xmlns="http://www.w3.org/2000/svg" xmlns:xlink="http://www.w3.org/1999/xlink" x="0px" y="0px"
	 width="769.461px" height="472px" viewBox="0 0 769.461 472" enable-background="new 0 0 769.461 472" xml:space="preserve">
<path fill="#CCCCCC" d="M609.931,330.332c0,0,19.277,4.258,27.5,9.668c5.949,3.914,12.5,11.783,12.5,11.783s-4,14.115,2.5,23.684
	c7.406,10.903,19,13.817,41,13.768c48.006-0.108,68.5-7.113,68.5-31.674s-2-40.249-42-41.404c-40-1.156-63,2.403-66,10.623
	l-2.621,6.932C651.31,333.711,634.931,325.664,609.931,330.332z"/>
<g>
	<path fill="#FFFFFF" d="M661.41,358.561c-0.351-0.729-0.617-1.506-0.8-2.332c-0.184-0.824-0.274-1.801-0.274-2.93
		c0-1.127,0.217-2.271,0.652-3.436s1.052-2.168,1.85-3.016c1.685-1.789,3.865-2.686,6.543-2.686c2.848,0,5.082,0.916,6.701,2.748
		c1.539,1.732,2.308,3.994,2.308,6.787c0,2.766-0.847,5.082-2.539,6.945c-0.798,0.879-1.754,1.572-2.868,2.08
		c-1.115,0.51-2.244,0.764-3.388,0.764s-2.118-0.121-2.924-0.359c-0.806-0.24-1.54-0.578-2.203-1.014s-1.251-0.955-1.765-1.557
		C662.191,359.955,661.759,359.289,661.41,358.561z M663.643,353.611c0,0.936,0.112,1.822,0.336,2.66s0.567,1.588,1.031,2.246
		c1.025,1.441,2.47,2.162,4.333,2.162c1.872,0,3.316-0.689,4.334-2.064c0.936-1.27,1.404-2.912,1.404-4.932
		c0-1.904-0.477-3.475-1.429-4.711c-1.05-1.344-2.482-2.014-4.297-2.014c-1.75,0-3.142,0.625-4.175,1.879
		C664.156,350.066,663.643,351.658,663.643,353.611z"/>
	<path fill="#FFFFFF" d="M682.406,342.307c0-0.219,0.062-0.402,0.189-0.549c0.125-0.146,0.277-0.219,0.457-0.219h1.672
		c0.188,0,0.342,0.072,0.465,0.219c0.121,0.146,0.183,0.33,0.183,0.549v9.242c0.7-1.189,1.729-1.949,3.089-2.283
		c0.431-0.105,0.979-0.158,1.641-0.158c0.664,0,1.284,0.145,1.862,0.432c0.577,0.289,1.038,0.686,1.38,1.191
		c0.609,0.92,0.915,2.273,0.915,4.064v7.58c0,0.244-0.073,0.439-0.22,0.586s-0.362,0.221-0.646,0.221h-1.197
		c-0.309,0-0.537-0.078-0.684-0.232s-0.219-0.346-0.219-0.574v-7.592c0-2.084-0.766-3.125-2.295-3.125
		c-0.855,0-1.66,0.373-2.418,1.123c-0.805,0.812-1.208,1.75-1.208,2.807v6.787c0,0.229-0.069,0.42-0.208,0.574
		s-0.361,0.232-0.671,0.232h-1.331c-0.236,0-0.42-0.078-0.555-0.232s-0.201-0.346-0.201-0.574V342.307z"/>
	<path fill="#FFFFFF" d="M699.532,356.803c-0.13-0.117-0.195-0.258-0.195-0.42v-1.16c0-0.164,0.065-0.301,0.195-0.416
		c0.13-0.113,0.288-0.17,0.476-0.17h7.422c0.188,0,0.348,0.059,0.482,0.176c0.135,0.119,0.201,0.26,0.201,0.422v1.16
		c0,0.162-0.066,0.301-0.201,0.414c-0.135,0.115-0.295,0.172-0.482,0.172h-7.422C699.82,356.98,699.662,356.922,699.532,356.803z"/>
	<path fill="#FFFFFF" d="M713.252,350.291c0-0.586,0.28-0.879,0.843-0.879h0.671c0.456,0,0.765,0.17,0.928,0.512
		c0.228,0.488,0.423,1.131,0.586,1.93c0.732-1.336,1.823-2.189,3.271-2.564c0.456-0.121,1.023-0.182,1.703-0.182
		c0.679,0,1.308,0.145,1.886,0.432c0.578,0.289,1.033,0.686,1.367,1.191c0.618,0.92,0.928,2.273,0.928,4.064v7.58
		c0,0.229-0.073,0.42-0.22,0.574s-0.362,0.232-0.647,0.232h-1.195c-0.311,0-0.537-0.078-0.684-0.232s-0.221-0.346-0.221-0.574
		v-7.592c0-2.084-0.765-3.125-2.295-3.125c-0.895,0-1.713,0.373-2.453,1.123c-0.789,0.805-1.184,1.74-1.184,2.807v6.787
		c0,0.229-0.07,0.42-0.208,0.574c-0.139,0.154-0.351,0.232-0.635,0.232h-1.257c-0.285,0-0.501-0.078-0.647-0.232
		s-0.22-0.346-0.22-0.574v-7.494c0-1.637-0.053-2.777-0.158-3.424C713.305,350.809,713.252,350.42,713.252,350.291z"/>
	<path fill="#FFFFFF" d="M729.122,356.248c0-1.059,0.177-2.029,0.531-2.912c0.354-0.883,0.84-1.637,1.458-2.264
		c1.295-1.311,2.926-1.965,4.896-1.965c2.205,0,3.914,0.654,5.127,1.965c1.172,1.262,1.758,2.994,1.758,5.199
		c0,2.133-0.663,3.875-1.989,5.225c-1.295,1.326-2.926,1.99-4.896,1.99c-2.075,0-3.743-0.68-5.005-2.039
		C729.748,360.121,729.122,358.389,729.122,356.248z M733.046,353.141c-0.306,0.451-0.527,0.965-0.666,1.539
		c-0.139,0.572-0.207,1.154-0.207,1.744c0,0.592,0.079,1.156,0.238,1.697c0.158,0.541,0.396,1.023,0.714,1.447
		c0.7,0.928,1.677,1.391,2.93,1.391c1.277,0,2.246-0.455,2.905-1.367c0.586-0.797,0.879-1.883,0.879-3.258
		c0-2.061-0.676-3.48-2.026-4.262c-0.497-0.285-1.097-0.426-1.801-0.426s-1.298,0.135-1.782,0.408S733.351,352.689,733.046,353.141z
		"/>
	<path fill="#FFFFFF" d="M746.468,361.338c0-0.578,0.207-1.078,0.622-1.502c0.398-0.414,0.892-0.621,1.478-0.621
		c0.577,0,1.065,0.207,1.465,0.621c0.406,0.424,0.609,0.924,0.609,1.502c0,0.586-0.203,1.09-0.609,1.514
		c-0.408,0.424-0.896,0.635-1.465,0.635c-0.578,0-1.07-0.211-1.478-0.635C746.675,362.428,746.468,361.924,746.468,361.338z
		 M748.08,356.932c-0.188,0-0.347-0.076-0.477-0.227c-0.131-0.15-0.195-0.332-0.195-0.543l-0.623-11.621
		c0-0.211,0.067-0.393,0.202-0.543c0.134-0.15,0.294-0.227,0.481-0.227h2.076c0.203,0,0.367,0.076,0.494,0.227
		c0.126,0.15,0.185,0.332,0.177,0.543l-0.476,11.621c0,0.211-0.067,0.393-0.202,0.543c-0.134,0.15-0.295,0.227-0.481,0.227H748.08z"
		/>
</g>
<ellipse fill="#CCCCCC" cx="456.597" cy="438.666" rx="92" ry="8.98"/>
<path fill="#FF5D76" d="M451.224,422.188c-37.496,0-69.473-12.961-95.938-38.884c-26.467-25.345-39.705-57.333-39.705-95.94
	c0-37.485,13.238-69.473,39.705-95.939c25.355-25.356,57.344-38.052,95.938-38.052c58.997,0,100.354,27.032,124.059,81.062
	c7.162,15.999,10.766,33.639,10.766,52.93c0,38.607-13.239,70.596-39.715,95.94C519.878,409.227,488.179,422.188,451.224,422.188z"
	/>
<linearGradient id="SVGID_1_" gradientUnits="userSpaceOnUse" x1="404.2241" y1="442.8809" x2="484.1798" y2="172.5905">
	<stop  offset="0.0024" style="stop-color:#DB2A3D"/>
	<stop  offset="0.9975" style="stop-color:#FF5D76"/>
</linearGradient>
<path fill="url(#SVGID_1_)" d="M451.394,414.595c-36.215,0-67.098-12.518-92.659-37.555c-25.562-24.479-38.349-55.374-38.349-92.662
	c0-36.204,12.787-67.099,38.349-92.661c24.489-24.49,55.385-36.752,92.659-36.752c56.982,0,96.925,26.109,119.82,78.292
	c6.917,15.452,10.396,32.489,10.396,51.121c0,37.288-12.785,68.183-38.357,92.662C517.703,402.077,487.087,414.595,451.394,414.595z
	"/>
<path fill="#DB2A3D" d="M400.848,194.871c0,0-28.153,3.376-46.44,22.629c-22.084,23.25-37.387,55.828-32.856,89.683
	c-1.529-6.502-6.4-21.2-3.894-41.933c2.011-16.634,8.671-36.366,28.249-63.387c9.501-13.113,14.487-14.011,19.999-17.598
	c7.967-5.186,14.319-0.561,19.752,1.135C396.509,188.789,400.848,194.871,400.848,194.871z"/>
<circle cx="467.599" cy="307.333" r="9.668"/>
<circle fill="#FFFFFF" cx="463.604" cy="303.337" r="1.663"/>
<circle cx="537.609" cy="305.794" r="17.116"/>
<circle fill="#FFFFFF" cx="530.537" cy="298.72" r="2.944"/>
<path d="M509.929,330.668c10.56-1.509,12,8,8.666,10c-3.333,2-4.666,0-8.666,0s-8.666,3.109-12,0.889
	C494.595,339.334,500.596,332,509.929,330.668z"/>
<g>
	<g>
		<path fill="#DB2A3D" d="M454.931,331.993c0,0,0.491-0.728,1.322-1.727c0.825-1.004,1.985-2.283,3.203-3.505
			c1.222-1.218,2.499-2.379,3.504-3.204c0.999-0.83,1.728-1.321,1.728-1.321s-0.491,0.729-1.321,1.728
			c-0.825,1.005-1.986,2.282-3.204,3.504c-1.222,1.218-2.501,2.378-3.505,3.203C455.659,331.502,454.931,331.993,454.931,331.993z"
			/>
	</g>
	<g>
		<path fill="#DB2A3D" d="M456.986,333.533c0,0,0.187-0.24,0.528-0.644c0.35-0.396,0.829-0.981,1.439-1.648
			c1.212-1.343,2.888-3.071,4.618-4.743c1.734-1.667,3.524-3.276,4.913-4.437c0.688-0.585,1.293-1.041,1.702-1.375
			c0.416-0.327,0.663-0.504,0.663-0.504s-0.186,0.24-0.528,0.644c-0.35,0.396-0.828,0.983-1.438,1.649
			c-1.212,1.343-2.888,3.071-4.619,4.742c-1.735,1.666-3.526,3.274-4.914,4.436c-0.688,0.585-1.293,1.042-1.701,1.376
			C457.233,333.356,456.986,333.533,456.986,333.533z"/>
	</g>
	<g>
		<path fill="#DB2A3D" d="M459.552,334.561c0,0,0.211-0.249,0.598-0.668c0.393-0.41,0.934-1.02,1.618-1.711
			c1.359-1.394,3.229-3.189,5.153-4.925c1.928-1.731,3.908-3.403,5.438-4.608c0.76-0.608,1.423-1.082,1.872-1.43
			c0.457-0.34,0.728-0.523,0.728-0.523s-0.211,0.25-0.597,0.668c-0.393,0.411-0.934,1.021-1.618,1.712
			c-1.359,1.395-3.23,3.188-5.154,4.924c-1.928,1.73-3.909,3.401-5.438,4.607c-0.76,0.608-1.422,1.083-1.872,1.431
			C459.823,334.377,459.552,334.561,459.552,334.561z"/>
	</g>
	<g>
		<path fill="#DB2A3D" d="M464.688,334.561c0,0,0.18-0.214,0.511-0.569c0.337-0.349,0.8-0.868,1.389-1.452
			c1.168-1.179,2.782-2.687,4.449-4.133c1.671-1.442,3.394-2.824,4.728-3.812c0.663-0.499,1.244-0.882,1.637-1.165
			c0.4-0.275,0.638-0.423,0.638-0.423s-0.18,0.214-0.51,0.57c-0.337,0.348-0.799,0.868-1.389,1.452
			c-1.168,1.18-2.783,2.686-4.45,4.132c-1.671,1.442-3.395,2.823-4.729,3.811c-0.663,0.499-1.243,0.882-1.637,1.166
			C464.925,334.413,464.688,334.561,464.688,334.561z"/>
	</g>
	<g>
		<path fill="#DB2A3D" d="M472.904,332.507c0,0,0.392-0.56,1.064-1.3c0.668-0.745,1.615-1.675,2.614-2.544
			c1.003-0.864,2.059-1.669,2.893-2.223c0.829-0.561,1.439-0.866,1.439-0.866s-0.391,0.561-1.063,1.301
			c-0.668,0.746-1.615,1.675-2.615,2.543c-1.003,0.864-2.06,1.668-2.894,2.222C473.514,332.2,472.904,332.507,472.904,332.507z"/>
	</g>
</g>
<g>
	<g>
		<path fill="#DB2A3D" d="M533.931,333.993c0,0,0.491-0.728,1.322-1.727c0.825-1.004,1.985-2.283,3.203-3.505
			c1.222-1.218,2.499-2.379,3.504-3.204c0.999-0.83,1.728-1.321,1.728-1.321s-0.491,0.729-1.321,1.728
			c-0.825,1.005-1.986,2.282-3.204,3.504c-1.222,1.218-2.501,2.378-3.505,3.203C534.659,333.502,533.931,333.993,533.931,333.993z"
			/>
	</g>
	<g>
		<path fill="#DB2A3D" d="M535.986,335.533c0,0,0.187-0.24,0.528-0.644c0.35-0.396,0.829-0.981,1.439-1.648
			c1.212-1.343,2.888-3.071,4.618-4.743c1.734-1.667,3.524-3.276,4.913-4.437c0.688-0.585,1.293-1.041,1.702-1.375
			c0.416-0.327,0.663-0.504,0.663-0.504s-0.186,0.24-0.528,0.644c-0.35,0.396-0.828,0.983-1.438,1.649
			c-1.212,1.343-2.888,3.071-4.619,4.742c-1.735,1.666-3.526,3.274-4.914,4.436c-0.688,0.585-1.293,1.042-1.701,1.376
			C536.233,335.356,535.986,335.533,535.986,335.533z"/>
	</g>
	<g>
		<path fill="#DB2A3D" d="M538.552,336.561c0,0,0.211-0.249,0.598-0.668c0.393-0.41,0.934-1.02,1.618-1.711
			c1.359-1.394,3.229-3.189,5.153-4.925c1.928-1.731,3.908-3.403,5.438-4.608c0.76-0.608,1.423-1.082,1.872-1.43
			c0.457-0.34,0.728-0.523,0.728-0.523s-0.211,0.25-0.597,0.668c-0.393,0.411-0.934,1.021-1.618,1.712
			c-1.359,1.395-3.23,3.188-5.154,4.924c-1.928,1.73-3.909,3.401-5.438,4.607c-0.76,0.608-1.422,1.083-1.872,1.431
			C538.823,336.377,538.552,336.561,538.552,336.561z"/>
	</g>
	<g>
		<path fill="#DB2A3D" d="M543.688,336.561c0,0,0.18-0.214,0.511-0.569c0.337-0.349,0.8-0.868,1.389-1.452
			c1.168-1.179,2.782-2.687,4.449-4.133c1.671-1.442,3.394-2.824,4.728-3.812c0.663-0.499,1.244-0.882,1.637-1.165
			c0.4-0.275,0.638-0.423,0.638-0.423s-0.18,0.214-0.51,0.57c-0.337,0.348-0.799,0.868-1.389,1.452
			c-1.168,1.18-2.783,2.686-4.45,4.132c-1.671,1.442-3.395,2.823-4.729,3.811c-0.663,0.499-1.243,0.882-1.637,1.166
			C543.925,336.413,543.688,336.561,543.688,336.561z"/>
	</g>
	<g>
		<path fill="#DB2A3D" d="M551.904,334.507c0,0,0.392-0.56,1.064-1.3c0.668-0.745,1.615-1.675,2.614-2.544
			c1.003-0.864,2.059-1.669,2.893-2.223c0.829-0.561,1.439-0.866,1.439-0.866s-0.391,0.561-1.063,1.301
			c-0.668,0.746-1.615,1.675-2.615,2.543c-1.003,0.864-2.06,1.668-2.894,2.222C552.514,334.2,551.904,334.507,551.904,334.507z"/>
	</g>
</g>
<path fill="#FFFFFF" d="M427.08,211.752l-9.614-5.264c0,0-7.18-1.013-14.499,3.853c-9.25,6.149-9.681,13.694-9.681,13.694
	l3.675,7.391c0,0,4.316-8.348,12.076-12.822C418.745,213.007,427.08,211.752,427.08,211.752z"/>
<path fill="#DB2A3D" d="M402.332,362.016c0,0,12.234,12.02,23.859,13.59c8.986,1.215,12.869-3.396,12.869-3.396
	s-0.867-12.961,2.225-12.973c3.093-0.013,1.625,12.241,1.625,12.241s4.756-8.871,8.218-7.247c3.463,1.623-5.349,11.283-5.349,11.283
	s9.707,2.402,8.387,5.682c-1.322,3.279-12.923-1.89-12.923-1.89s-11.354,9.894-29.515,2.083
	C398.738,375.8,402.332,362.016,402.332,362.016z"/>
<path fill="#FF5D76" d="M398.931,357.5c0,0,14.75,8.75,26.413,7.5c9.017-0.966,11.687-6.37,11.687-6.37s-3.937-12.38-0.937-13.13
	s4.5,11.5,4.5,11.5s2.5-9.75,6.25-9s-2.5,12.234-2.5,12.234s10,0.016,9.5,3.516s-13,1.25-13,1.25s-8.663,12.318-28.163,9.068
	C398.732,371.743,398.931,357.5,398.931,357.5z"/>
<path fill="#FF5D76" d="M440.893,418v14c0,0,15.508-1.5,16.008,3.5s-25.98,2.5-25.98,2.5l2.88-20H440.893z"/>
<path fill="#FF5D76" d="M489.893,415v14c0,0,15.508-1.5,16.008,3.5s-25.98,2.5-25.98,2.5l2.88-20H489.893z"/>
<path fill="#FF5D76" d="M499.433,335.533c0,0,1.832-0.079,4.498,1.027s3.021,4.532,3.021,4.532s-4.771,2.076-7.854,1.264
	C494.353,341.106,496.814,337.669,499.433,335.533z"/>
<g>
	<path fill="#AAD23F" d="M485.255,283.5c0,0,0.163,1.377-0.457,3.338c-0.309,0.975-0.82,2.08-1.612,3.146
		c-0.199,0.264-0.433,0.512-0.654,0.773c-0.253,0.236-0.498,0.487-0.773,0.712l-0.428,0.323c-0.091,0.064-0.103,0.081-0.258,0.186
		l-0.207,0.125c-0.282,0.168-0.543,0.333-0.851,0.493c-0.333,0.155-0.664,0.316-1,0.458c-0.332,0.109-0.663,0.219-0.991,0.327
		c-0.665,0.178-1.323,0.331-1.972,0.382c-1.291,0.135-2.49,0.03-3.483-0.154c-0.994-0.197-1.785-0.472-2.32-0.701
		c-0.534-0.236-0.817-0.408-0.817-0.408s0.328,0.049,0.897,0.079c0.566,0.036,1.372,0.073,2.318,0.024
		c0.944-0.035,2.032-0.159,3.141-0.424c0.553-0.145,1.113-0.304,1.665-0.513c0.269-0.116,0.54-0.233,0.812-0.352
		c0.245-0.14,0.498-0.263,0.748-0.391c0.261-0.148,0.54-0.347,0.812-0.51l0.205-0.128c-0.023,0.012,0.09-0.073,0.128-0.104
		l0.336-0.261c0.439-0.356,0.848-0.748,1.221-1.158c0.381-0.405,0.729-0.826,1.03-1.254c0.332-0.409,0.599-0.836,0.856-1.229
		c0.521-0.785,0.914-1.488,1.205-1.984C485.092,283.79,485.255,283.5,485.255,283.5z"/>
</g>
<path fill="#DB2A3D" d="M565.627,360.194l4.042-6.575c-6.276-6.015-8.598-14.877-12.263-17.267
	c-3.664-2.391-12.609-3.026-12.657,0.301c-0.042,2.965,1.47,2.6,1.47,2.6s-2.709,0.001-2.491,3.361
	c0.238,3.658,3.363,3.361,3.363,3.361s-2.286,0.994-1.025,4.141c1.268,3.162,12.101-0.241,12.101-0.241s0.238,1.525,2.879,5.106
	S565.627,360.194,565.627,360.194z"/>
<path fill="#AAD23F" d="M401.848,194.871c0,0-4.183-95.043-72.675-135.404c-68.492-40.368-121.413,1.215-203.665,11.307
	C43.24,80.871,8.741,56.341,8.741,56.341s6.356,114.419,80.14,155.9c59.379,33.404,156.1,2.596,227.66-13.241
	C362.519,188.825,401.848,194.871,401.848,194.871z"/>
<g>
	<path fill="#76A500" d="M392.679,181.333c0,0-0.822-1.366-2.534-3.812c-1.7-2.451-4.327-5.954-7.854-10.249
		c-3.528-4.293-8.049-9.309-13.534-14.741c-5.498-5.419-12.049-11.17-19.607-16.875c-7.57-5.688-16.229-11.223-25.832-16.188
		c-4.785-2.517-9.874-4.75-15.122-6.877c-2.697-1.075-5.318-2.059-8.07-3.01c-1.362-0.491-2.738-0.963-4.128-1.413
		c-1.383-0.471-2.785-0.899-4.193-1.331c-11.261-3.458-23.232-5.854-35.509-6.954c-12.277-1.133-24.861-0.846-37.315,0.699
		c-12.469,1.479-24.805,4.156-36.874,7.292c-12.072,3.141-23.942,6.599-35.776,9.145c-5.918,1.245-11.839,2.261-17.747,2.624
		c-0.736,0.057-1.476,0.075-2.211,0.109l-0.552,0.022l-0.578,0.01l-1.067,0.012c-1.421,0.017-2.834,0.033-4.239,0.049
		c-2.864-0.071-5.71-0.076-8.472-0.275c-11.093-0.551-21.506-2.421-30.81-5.109c-4.649-1.359-9.033-2.898-13.101-4.604
		c-4.064-1.716-7.805-3.596-11.229-5.509c-6.869-3.81-12.349-7.946-16.604-11.592c-4.253-3.664-7.231-6.922-9.181-9.188
		C28.597,81.288,27.658,80,27.658,80s1.03,1.22,3.124,3.344c2.088,2.126,5.307,5.096,9.697,8.479
		c4.412,3.348,10.043,7.063,16.928,10.482c6.87,3.438,15.006,6.523,24.149,8.811c4.566,1.164,9.406,2.035,14.437,2.704
		c2.513,0.358,5.085,0.59,7.693,0.847c2.618,0.159,5.27,0.372,7.97,0.409c2.705,0.119,5.411,0.045,8.163,0.042
		c1.403-0.056,2.815-0.111,4.235-0.167l1.066-0.042l0.492-0.021l0.518-0.036c0.691-0.052,1.383-0.087,2.079-0.161
		c5.56-0.51,11.238-1.521,16.979-2.849c11.493-2.642,23.252-6.4,35.451-9.581c12.183-3.223,24.783-6.09,37.63-7.618
		c12.838-1.521,25.873-1.748,38.57-0.504c6.351,0.598,12.604,1.627,18.707,2.939c6.106,1.303,12.061,2.921,17.819,4.79
		c1.439,0.468,2.873,0.933,4.285,1.439c1.418,0.487,2.823,0.992,4.21,1.523c2.765,1.041,5.555,2.181,8.167,3.308
		c5.342,2.335,10.504,4.765,15.344,7.475c9.74,5.311,18.335,11.356,25.834,17.411c7.507,6.058,13.839,12.238,19.146,17.966
		c5.312,5.729,9.536,11.072,12.848,15.578c3.319,4.504,5.659,8.228,7.209,10.784C391.952,179.914,392.679,181.333,392.679,181.333z"
		/>
</g>
<path fill="#DB2A3D" d="M543.806,276.318c-15.759-1.249-29.549,10.512-30.799,26.271c-1.251,15.759,10.511,29.549,26.271,30.799
	c1.972,0.156,3.912,0.109,5.802-0.124l5.263,21.661c0.344,1.411,2.36,2.132,4.507,1.609c2.147-0.52,3.61-2.085,3.267-3.497
	l-5.313-21.868c9.455-4.056,16.402-13.082,17.273-24.052C571.328,291.359,559.566,277.569,543.806,276.318z M563.573,306.85
	c-0.747,9.406-7.213,16.984-15.713,19.605c-0.103,0.02-0.202,0.028-0.306,0.054c-0.28,0.068-0.548,0.156-0.803,0.257
	c-2.306,0.583-4.742,0.811-7.244,0.612c-12.313-0.979-21.504-11.752-20.527-24.065c0.977-12.315,11.754-21.505,24.066-20.528
	S564.549,294.536,563.573,306.85z"/>
<path fill="#9CB53F" d="M542.49,279.666c-1.004,0.059-2.431,0.12-4.105,0.023c-1.672-0.083-3.591-0.298-5.548-0.778
	c-1.826-0.447-3.672-1.138-5.386-2.07c-1.575,0.501-3.181,0.924-4.8,1.267c0.107,0.079,0.207,0.164,0.317,0.24l0.428,0.3l0.36,0.231
	c0.442,0.299,1.066,0.642,1.624,0.933c2.229,1.157,4.681,1.808,6.967,2.032c2.293,0.23,4.423,0.05,6.182-0.3
	c1.762-0.359,3.162-0.856,4.108-1.271c0.947-0.419,1.443-0.737,1.443-0.737S543.496,279.609,542.49,279.666z"/>
<g>
	<g>
		<path fill="#FB9E67" d="M537.002,272.788c-15.809,0-28.625,12.816-28.625,28.625s12.816,28.625,28.625,28.625
			s28.625-12.816,28.625-28.625S552.811,272.788,537.002,272.788z M536.755,324.026c-12.352,0-22.366-10.014-22.366-22.366
			s10.015-22.366,22.366-22.366c12.353,0,22.366,10.014,22.366,22.366S549.108,324.026,536.755,324.026z"/>
		<path fill="#FB9E67" d="M557.336,348.135c0.454,1.38-0.88,3.058-2.979,3.745l0,0c-2.099,0.691-4.167,0.132-4.62-1.248
			l-8.006-24.359c-0.454-1.38,0.88-3.059,2.978-3.747l0,0c2.1-0.69,4.168-0.13,4.622,1.249L557.336,348.135z"/>
	</g>
</g>
<path fill="#FF5D76" d="M575.165,342.545c0,0-4.733,9.632-6.465,7.973c-6.546-6.273-8.968-15.518-12.79-18.011
	s-13.152-3.156-13.202,0.314c-0.044,3.092,1.532,2.711,1.532,2.711s-2.825,0.001-2.598,3.507c0.248,3.815,3.508,3.506,3.508,3.506
	s-2.385,1.037-1.069,4.318c1.322,3.299,11.829-1.113,11.829-1.113s11.593,16.449,20.271,18.75
	C589.851,368.123,575.165,342.545,575.165,342.545z"/>
<g>
	<path fill="#AF0700" d="M535.454,332.835c0.07-0.058,0.13-0.103,0.204-0.164c1.004-0.825,2.95-2.657,2.971-2.679
		c-0.256,0.021-1.129,0.039-1.401,0.045c-0.92,0.96-1.33,1.446-1.974,2.229c-0.1,0.119-0.26,0.325-0.348,0.436
		C535.059,332.784,535.299,332.754,535.454,332.835z"/>
	<path fill="#AF0700" d="M538.722,333.339c0,0,2.51-2.068,4.141-3.622c-0.044-0.199-0.063-0.114-0.103-0.313
		c-0.276,0.051-0.838,0.181-1.118,0.225c-1.512,1.483-3.688,3.613-3.688,3.613L538.722,333.339z"/>
	<path fill="#AF0700" d="M542.535,333.479l0.182-0.148c0,0-0.036-0.728,0.22-1.291c-0.997,0.947-1.472,1.439-1.472,1.439H542.535z"
		/>
	<path fill="#AF0700" d="M556.401,325.43c-0.393,0.283-0.974,0.666-1.636,1.165c-1.036,0.767-2.306,1.665-3.604,2.751
		c0.076,0.364,0.283,0.719,0.356,1.084c1.413-1.25,2.618-2.387,3.622-3.4c0.59-0.584,1.052-1.104,1.389-1.452
		c0.33-0.356,0.51-0.57,0.51-0.57S556.801,325.154,556.401,325.43z"/>
</g>
</svg>
